<svg width="20" height="14" viewBox="0 0 20 14" fill="none" xmlns="http://www.w3.org/2000/svg">
<path fill-rule="evenodd" clip-rule="evenodd" d="M7 7C8.93 7 10.5 5.43 10.5 3.5C10.5 1.57 8.93 0 7 0C5.07 0 3.5 1.57 3.5 3.5C3.5 5.43 5.07 7 7 7ZM7 2C7.83 2 8.5 2.67 8.5 3.5C8.5 4.33 7.83 5 7 5C6.17 5 5.5 4.33 5.5 3.5C5.5 2.67 6.17 2 7 2ZM2.77 12H7.05C7.02 12.16 7 12.33 7 12.5V14H0V12.5C0 10.17 4.66 9 7 9C7.56 9 8.25 9.07 8.98 9.2C8.27 9.68 7.68 10.28 7.34 11.01C7.28502 11.01 7.22755 11.0075 7.17007 11.005L7.17 11.005L7.16993 11.005C7.11245 11.0025 7.05498 11 7 11C5.47 11 3.76 11.5 2.77 12ZM14.5 9.5C12.66 9.5 9 10.51 9 12.5V14H20V12.5C20 10.51 16.34 9.5 14.5 9.5ZM17 5.5C17 6.44 16.47 7.25 15.71 7.68C15.35 7.88 14.94 8 14.5 8C14.06 8 13.65 7.88 13.29 7.68C12.53 7.25 12 6.44 12 5.5C12 4.12 13.12 3 14.5 3C15.88 3 17 4.12 17 5.5Z" fill="#727272"/>
</svg>
