<svg width="151" height="21" viewBox="0 0 151 21" fill="none" xmlns="http://www.w3.org/2000/svg">
  <path d="M14.473 14.5572C14.9637 14.9179 15.209 15.481 15.209 16.2466C15.209 17.0122 15.0435 17.6655 14.7124 18.2065C14.3813 18.7445 13.8936 19.2219 13.2492 19.6387C11.8687 20.5285 9.97234 20.9734 7.56018 20.9734C5.14801 20.9734 3.28421 20.3438 1.96875 19.0845C0.65625 17.8252 0 16.0796 0 13.8478C0 10.6877 0.82179 7.90752 2.46537 5.50718C3.71579 3.72762 5.45693 2.45946 7.68877 1.7027C8.84164 1.32432 9.98564 1.13514 11.1208 1.13514C12.2559 1.13514 13.1738 1.21052 13.8744 1.36128C14.575 1.51204 15.1898 1.73965 15.719 2.04413C16.8748 2.70629 17.4527 3.56651 17.4527 4.62479C17.4527 5.59143 16.9975 6.43391 16.087 7.15224C15.2563 7.79371 14.4996 8.11444 13.8167 8.11444C13.1368 8.11444 12.655 8.06715 12.3712 7.97255C12.4481 7.29265 12.4865 6.731 12.4865 6.28759C12.4865 5.84122 12.4761 5.45693 12.4554 5.13471C12.4377 4.81546 12.3815 4.50359 12.287 4.19911C12.0978 3.49852 11.7149 3.14823 11.1385 3.14823C10.5591 3.14823 9.98121 3.41871 9.40477 3.95967C8.82834 4.49768 8.29476 5.22044 7.80405 6.12796C6.68665 8.1913 6.12796 10.4438 6.12796 12.8856C6.12796 14.0562 6.45904 14.9785 7.1212 15.6525C7.78336 16.3235 8.8239 16.659 10.2428 16.659C11.3011 16.659 12.3328 16.3087 13.3378 15.6081C13.7724 15.3066 14.1508 14.9563 14.473 14.5572ZM24.3478 18.8716C23.7595 20.2905 22.5298 21 20.6586 21C19.7126 21 18.9367 20.6689 18.3307 20.0068C17.8399 19.4569 17.5946 18.8701 17.5946 18.2464C17.5946 16.8275 17.9257 14.5676 18.5878 11.4666L20.6586 0.567569L26.4185 0L23.6649 14.3577C23.3427 15.7589 23.1816 16.7048 23.1816 17.1955C23.1816 18.2745 23.5703 18.8332 24.3478 18.8716ZM32.9455 21C28.7834 21 26.7023 19.0416 26.7023 15.1248C26.7023 12.3431 27.4679 10.0536 28.9992 8.25634C30.628 6.34671 32.8509 5.39189 35.6681 5.39189C37.7137 5.39189 39.2568 5.86487 40.2973 6.81081C41.3378 7.75676 41.8581 9.22297 41.8581 11.2095C41.8581 14.2365 41.0437 16.6294 39.4149 18.3883C37.8275 20.1294 35.671 21 32.9455 21ZM33.6816 8.65541C33.4569 9.16681 33.2544 9.80532 33.0741 10.5709C32.8938 11.3366 32.6898 12.3254 32.4622 13.5374C32.2346 14.7464 32.1208 16.0988 32.1208 17.5946C32.1208 18.0853 32.2021 18.4918 32.3647 18.814C32.5243 19.1362 32.8214 19.2973 33.2559 19.2973C33.6934 19.2973 34.0481 19.1938 34.3201 18.9869C34.595 18.777 34.8374 18.4267 35.0473 17.936C35.4257 17.064 35.7656 15.8195 36.0671 14.2025C36.3687 12.5855 36.5342 11.4267 36.5638 10.7261C36.5933 10.0255 36.6081 9.41512 36.6081 8.89485C36.6081 8.37458 36.5312 7.94447 36.3775 7.60452C36.2268 7.26457 35.9386 7.0946 35.5129 7.0946C35.0872 7.0946 34.7325 7.22762 34.4487 7.49367C34.1649 7.75676 33.9092 8.144 33.6816 8.65541ZM52.6419 19.2397C51.7314 20.4132 50.1514 21 47.9018 21C46.7283 21 45.7158 20.6453 44.8644 19.9358C44.0131 19.2264 43.5874 18.3602 43.5874 17.3374C43.5874 16.7698 43.6155 16.3442 43.6717 16.0604L45.5739 5.95946L51.3338 5.39189L49.2631 16.3442C49.1862 16.761 49.1478 17.0921 49.1478 17.3374C49.1478 18.4371 49.4789 18.9869 50.141 18.9869C50.8801 18.9869 51.5141 18.4844 52.0433 17.4793C52.2147 17.1601 52.3374 16.792 52.4113 16.3752L54.4288 5.95946L60.0203 5.39189L57.9185 16.4595C57.8623 16.7432 57.8342 17.0359 57.8342 17.3374C57.8342 17.6419 57.9185 17.9597 58.087 18.2908C58.2584 18.6218 58.6191 18.8243 59.1689 18.8982C59.0536 19.3535 58.7979 19.7318 58.4018 20.0334C57.5682 20.6778 56.7021 21 55.8034 21C54.9048 21 54.1909 20.8389 53.6617 20.5167C53.1326 20.1945 52.7927 19.7688 52.6419 19.2397ZM70.3784 5.39189C71.0583 5.39189 71.6628 5.46727 72.1919 5.61803C72.2126 5.54413 72.2407 5.40224 72.2762 5.19236L72.4181 4.3144C72.4949 3.93602 72.5895 3.43497 72.7019 2.81123L73.1586 0.567569L78.8032 0L75.655 16.4595C75.6372 16.5718 75.6284 16.7226 75.6284 16.9117V17.3685C75.6284 17.7853 75.7318 18.1489 75.9388 18.4592C76.1457 18.7726 76.4206 18.9293 76.7635 18.9293C76.3851 19.819 75.618 20.4531 74.4622 20.8315C74.0661 20.9438 73.5887 21 73.03 21C72.4713 21 71.9362 20.8537 71.4248 20.561C70.9164 20.2684 70.5853 19.8752 70.4316 19.3815C70.1301 19.8752 69.6763 20.2684 69.0703 20.561C68.4643 20.8537 67.7223 21 66.8444 21C65.9635 21 65.1594 20.8862 64.4322 20.6586C63.7021 20.431 63.1109 20.0718 62.6586 19.5811C61.825 18.6174 61.4082 17.0374 61.4082 14.841C61.4082 12.0032 62.2403 9.72403 63.9046 8.00359C65.5718 6.26246 67.7297 5.39189 70.3784 5.39189ZM70.1788 7.0946C69.4783 7.0946 68.9388 7.47297 68.5604 8.22973C68.182 8.98649 67.7992 10.3019 67.4119 12.1761C67.0247 14.0473 66.8311 15.8254 66.8311 17.5103C66.8311 18.6632 67.171 19.2397 67.8509 19.2397C68.4569 19.2397 68.9728 18.9367 69.3984 18.3307C69.8241 17.7276 70.1212 16.9236 70.2897 15.9185L71.8239 7.60452C71.4278 7.26457 70.8794 7.0946 70.1788 7.0946ZM90.6689 11.2937L96.3978 10.7838C95.038 13.7724 94.3581 16.9975 94.3581 20.459C93.8467 20.8197 93.2171 21 92.4692 21C91.7213 21 91.1109 20.8256 90.6379 20.4768C90.1649 20.125 89.8811 19.7703 89.7865 19.4126C89.3136 19.9033 88.6943 20.2905 87.9286 20.5743C87.163 20.8581 86.3737 21 85.5608 21C84.7449 21 83.9823 20.867 83.2728 20.6009C82.5633 20.3378 81.9352 19.9122 81.3883 19.3239C80.1763 18.038 79.5703 16.1757 79.5703 13.7369C79.5703 9.95313 80.5828 6.9261 82.6077 4.65583C84.6888 2.3087 87.5739 1.13514 91.2631 1.13514C93.8171 1.13514 95.5479 1.7973 96.4554 3.12162C96.7392 3.53843 96.8811 3.99662 96.8811 4.4962C96.8811 4.99873 96.7732 5.46284 96.5574 5.88851C96.3387 6.31419 96.0593 6.697 95.7194 7.03695C94.9065 7.79371 93.9975 8.17209 92.9924 8.17209C92.5963 8.17209 92.209 8.10557 91.8307 7.97255C91.9075 7.40498 91.9459 6.79012 91.9459 6.12796C91.9459 5.4658 91.9223 4.98395 91.875 4.68243C91.8277 4.38091 91.7464 4.106 91.6311 3.85769C91.3858 3.34924 90.9941 3.09502 90.4561 3.09502C89.9151 3.09502 89.3476 3.38323 88.7534 3.95967C88.1563 4.53611 87.6212 5.2973 87.1482 6.24324C86.1077 8.36275 85.5874 10.6995 85.5874 13.2536C85.5874 14.4272 85.815 15.4293 86.2703 16.2599C86.761 17.1674 87.4409 17.6212 88.31 17.6212C88.6144 17.6212 88.9041 17.5458 89.1791 17.3951C89.451 17.2443 89.6446 17.1128 89.7599 17.0004L90.6689 11.2937ZM99.0228 19.5811C98.5794 19.0904 98.2587 18.4563 98.0606 17.6788C97.8625 16.9044 97.7635 15.883 97.7635 14.6149C97.7635 13.3467 97.9808 12.1362 98.4153 10.9833C98.8499 9.82749 99.4647 8.83425 100.26 8.00359C101.886 6.26246 104.042 5.39189 106.729 5.39189C107.693 5.39189 108.525 5.553 109.226 5.87521L114.081 5.39189L111.979 16.4595C111.923 16.6871 111.895 17.0093 111.895 17.4261C111.895 17.84 112.022 18.1799 112.276 18.4459C112.534 18.712 112.851 18.8628 113.23 18.8982C113.041 19.5427 112.6 20.0541 111.908 20.4324C111.217 20.8108 110.484 21 109.709 21C108.935 21 108.287 20.8537 107.767 20.561C107.247 20.2684 106.91 19.8752 106.756 19.3815C106.454 19.8545 105.981 20.2432 105.337 20.5477C104.696 20.8492 103.945 21 103.084 21C102.221 21 101.441 20.8862 100.743 20.6586C100.043 20.431 99.4692 20.0718 99.0228 19.5811ZM105.013 8.06123C104.795 8.40118 104.591 8.85938 104.401 9.43581C104.212 10.0122 103.962 11.072 103.652 12.6151C103.339 14.1552 103.182 15.4751 103.182 16.5747C103.182 17.6715 103.268 18.3809 103.439 18.7031C103.608 19.0224 103.844 19.182 104.149 19.182C104.752 19.182 105.276 18.8938 105.723 18.3174C106.166 17.7409 106.474 16.9413 106.645 15.9185L108.148 7.60452C107.752 7.26457 107.322 7.0946 106.858 7.0946C106.394 7.0946 106.024 7.16998 105.749 7.32074C105.474 7.4715 105.229 7.71833 105.013 8.06123ZM127.104 11.2937L132.837 10.7838C131.475 13.7724 130.793 16.9975 130.793 20.459C130.282 20.8197 129.654 21 128.909 21C128.161 21 127.55 20.8256 127.078 20.4768C126.605 20.125 126.321 19.7703 126.226 19.4126C125.753 19.9033 125.134 20.2905 124.368 20.5743C123.6 20.8581 122.809 21 121.996 21C121.183 21 120.422 20.867 119.712 20.6009C119.003 20.3378 118.373 19.9122 117.823 19.3239C116.614 18.038 116.01 16.1757 116.01 13.7369C116.01 9.95313 117.022 6.9261 119.047 4.65583C121.128 2.3087 124.014 1.13514 127.703 1.13514C130.257 1.13514 131.988 1.7973 132.895 3.12162C133.179 3.53843 133.321 3.99662 133.321 4.4962C133.321 4.99873 133.211 5.46284 132.993 5.88851C132.777 6.31419 132.497 6.697 132.155 7.03695C131.342 7.79371 130.434 8.17209 129.432 8.17209C129.036 8.17209 128.649 8.10557 128.27 7.97255C128.344 7.40498 128.381 6.79012 128.381 6.12796C128.381 5.4658 128.357 4.98395 128.31 4.68243C128.263 4.38091 128.183 4.106 128.071 3.85769C127.825 3.34924 127.432 3.09502 126.891 3.09502C126.353 3.09502 125.786 3.38323 125.189 3.95967C124.594 4.53611 124.061 5.2973 123.588 6.24324C122.547 8.36275 122.027 10.6995 122.027 13.2536C122.027 14.4272 122.253 15.4293 122.705 16.2599C123.199 17.1674 123.88 17.6212 124.75 17.6212C125.051 17.6212 125.339 17.5458 125.614 17.3951C125.889 17.2443 126.083 17.1128 126.195 17.0004L127.104 11.2937ZM135.462 19.5811C135.019 19.0904 134.697 18.4563 134.496 17.6788C134.298 16.9044 134.199 15.883 134.199 14.6149C134.199 13.3467 134.416 12.1362 134.851 10.9833C135.288 9.82749 135.903 8.83425 136.695 8.00359C138.324 6.26246 140.482 5.39189 143.169 5.39189C144.133 5.39189 144.965 5.553 145.665 5.87521L150.516 5.39189L148.419 16.4595C148.36 16.6871 148.33 17.0093 148.33 17.4261C148.33 17.84 148.459 18.1799 148.716 18.4459C148.97 18.712 149.287 18.8628 149.665 18.8982C149.476 19.5427 149.037 20.0541 148.348 20.4324C147.656 20.8108 146.923 21 146.149 21C145.371 21 144.722 20.8537 144.202 20.561C143.682 20.2684 143.346 19.8752 143.196 19.3815C142.894 19.8545 142.421 20.2432 141.777 20.5477C141.132 20.8492 140.38 21 139.52 21C138.659 21 137.879 20.8862 137.178 20.6586C136.478 20.431 135.906 20.0718 135.462 19.5811ZM141.448 8.06123C141.233 8.40118 141.03 8.85938 140.841 9.43581C140.652 10.0122 140.401 11.072 140.087 12.6151C139.777 14.1552 139.622 15.4751 139.622 16.5747C139.622 17.6715 139.706 18.3809 139.874 18.7031C140.046 19.0224 140.282 19.182 140.584 19.182C141.19 19.182 141.715 18.8938 142.158 18.3174C142.604 17.7409 142.912 16.9413 143.08 15.9185L144.588 7.60452C144.189 7.26457 143.757 7.0946 143.293 7.0946C142.832 7.0946 142.464 7.16998 142.189 7.32074C141.914 7.4715 141.667 7.71833 141.448 8.06123Z" fill="#3C3C3C"/>
</svg>
