<svg width="28" height="28" viewBox="0 0 28 28" fill="none" xmlns="http://www.w3.org/2000/svg">
  <path fill-rule="evenodd" clip-rule="evenodd" d="M18.4473 17.3825H19.6323L27.1173 24.8825L24.8823 27.1175L17.3823 19.6325V18.4475L16.9773 18.0275C15.2673 19.4975 13.0473 20.3825 10.6323 20.3825C5.24732 20.3825 0.882324 16.0175 0.882324 10.6325C0.882324 5.24751 5.24732 0.882507 10.6323 0.882507C16.0173 0.882507 20.3823 5.24751 20.3823 10.6325C20.3823 13.0475 19.4973 15.2675 18.0273 16.9775L18.4473 17.3825ZM3.88232 10.6325C3.88232 14.3675 6.89732 17.3825 10.6323 17.3825C14.3673 17.3825 17.3823 14.3675 17.3823 10.6325C17.3823 6.89751 14.3673 3.88251 10.6323 3.88251C6.89732 3.88251 3.88232 6.89751 3.88232 10.6325Z" fill="#767676"/>
</svg>
