<svg width="10" height="16" viewBox="0 0 10 16" fill="none" xmlns="http://www.w3.org/2000/svg">
  <path fill-rule="evenodd" clip-rule="evenodd" d="M5.00833 9.29167L5 0.5H10V3.83333H6.66667V12.1667C6.66667 14.0083 5.19167 15.5 3.34167 15.5C1.49167 15.5 0 14.0083 0 12.1667C0 10.325 1.49167 8.83333 3.34167 8.83333C3.95 8.83333 4.51667 9.00833 5.00833 9.29167ZM1.67489 12.1667C1.67489 13.0833 2.42489 13.8333 3.34156 13.8333C4.25822 13.8333 5.00822 13.0833 5.00822 12.1667C5.00822 11.25 4.25822 10.5 3.34156 10.5C2.42489 10.5 1.67489 11.25 1.67489 12.1667Z" fill="black" fill-opacity="0.54"/>
</svg>
