<svg width="64" height="64" viewBox="0 0 64 64" fill="none" xmlns="http://www.w3.org/2000/svg">
  <path d="M22.4761 50.176L12.928 55.3842C12.3677 55.6897 11.8642 56.0652 11.3956 56.4746C16.9624 61.1683 24.1485 64 32 64C39.7935 64 46.9337 61.2106 52.4848 56.5808C51.9728 56.1485 51.4174 55.7597 50.8015 55.453L40.5772 50.3414C39.2562 49.6809 38.4217 48.3309 38.4217 46.854V42.8426C38.7091 42.5153 39.0376 42.0951 39.389 41.5988C40.7825 39.6305 41.8367 37.4654 42.5673 35.194C43.8786 34.7894 44.8447 33.5783 44.8447 32.1389V27.8569C44.8447 26.915 44.4257 26.0734 43.7748 25.4841V19.2942C43.7748 19.2942 45.0463 9.66159 32.0012 9.66159C18.9561 9.66159 20.2276 19.2942 20.2276 19.2942V25.4841C19.5756 26.0734 19.1577 26.915 19.1577 27.8569V32.1389C19.1577 33.2667 19.7506 34.2593 20.6382 34.8329C21.7081 39.4904 24.5096 42.8426 24.5096 42.8426V46.755C24.5084 48.1799 23.7283 49.4925 22.4761 50.176Z" fill="#E7ECED"/>
  <path d="M32.547 0.00482621C14.8769 -0.297061 0.306655 13.7829 0.00476833 31.453C-0.166703 41.472 4.29881 50.4767 11.4088 56.4649C11.8737 56.0592 12.3725 55.6872 12.9267 55.3854L22.4748 50.1772C23.727 49.4937 24.5071 48.1811 24.5071 46.7538V42.8414C24.5071 42.8414 21.7044 39.4892 20.6357 34.8317C19.7494 34.2581 19.1553 33.2667 19.1553 32.1377V27.8557C19.1553 26.9138 19.5743 26.0721 20.2251 25.4829V19.293C20.2251 19.293 18.9536 9.66037 31.9987 9.66037C45.0439 9.66037 43.7723 19.293 43.7723 19.293V25.4829C44.4244 26.0721 44.8422 26.9138 44.8422 27.8557V32.1377C44.8422 33.5771 43.8762 34.7882 42.5648 35.1927C41.8342 37.4641 40.78 39.6293 39.3865 41.5976C39.0351 42.0939 38.7067 42.5141 38.4193 42.8414V46.8528C38.4193 48.3297 39.2537 49.6809 40.5747 50.3402L50.799 55.4518C51.4125 55.7585 51.9667 56.1461 52.4775 56.5772C59.3726 50.8269 63.8273 42.2291 63.9927 32.547C64.297 14.877 50.2182 0.306713 32.547 0.00482621Z" fill="#556080"/>
</svg>
