<svg width="400" height="400" viewBox="0 0 400 400" fill="none" xmlns="http://www.w3.org/2000/svg">
<rect opacity="0.4" width="400" height="400" fill="#C09F6C"/>
<path d="M139.473 58.5572C139.964 58.9179 140.209 59.481 140.209 60.2466C140.209 61.0122 140.043 61.6655 139.712 62.2065C139.381 62.7445 138.894 63.2219 138.249 63.6387C136.869 64.5285 134.972 64.9734 132.56 64.9734C130.148 64.9734 128.284 64.3438 126.969 63.0845C125.656 61.8252 125 60.0796 125 57.8478C125 54.6877 125.822 51.9075 127.465 49.5072C128.716 47.7276 130.457 46.4595 132.689 45.7027C133.842 45.3243 134.986 45.1351 136.121 45.1351C137.256 45.1351 138.174 45.2105 138.874 45.3613C139.575 45.512 140.19 45.7397 140.719 46.0441C141.875 46.7063 142.453 47.5665 142.453 48.6248C142.453 49.5914 141.997 50.4339 141.087 51.1522C140.256 51.7937 139.5 52.1144 138.817 52.1144C138.137 52.1144 137.655 52.0671 137.371 51.9726C137.448 51.2927 137.486 50.731 137.486 50.2876C137.486 49.8412 137.476 49.4569 137.455 49.1347C137.438 48.8155 137.382 48.5036 137.287 48.1991C137.098 47.4985 136.715 47.1482 136.139 47.1482C135.559 47.1482 134.981 47.4187 134.405 47.9597C133.828 48.4977 133.295 49.2204 132.804 50.128C131.687 52.1913 131.128 54.4438 131.128 56.8856C131.128 58.0562 131.459 58.9785 132.121 59.6525C132.783 60.3235 133.824 60.659 135.243 60.659C136.301 60.659 137.333 60.3087 138.338 59.6081C138.772 59.3066 139.151 58.9563 139.473 58.5572ZM149.348 62.8716C148.76 64.2905 147.53 65 145.659 65C144.713 65 143.937 64.6689 143.331 64.0068C142.84 63.4569 142.595 62.8701 142.595 62.2464C142.595 60.8275 142.926 58.5676 143.588 55.4666L145.659 44.5676L151.418 44L148.665 58.3577C148.343 59.7589 148.182 60.7048 148.182 61.1955C148.182 62.2745 148.57 62.8332 149.348 62.8716ZM157.946 65C153.783 65 151.702 63.0416 151.702 59.1248C151.702 56.3431 152.468 54.0536 153.999 52.2563C155.628 50.3467 157.851 49.3919 160.668 49.3919C162.714 49.3919 164.257 49.8649 165.297 50.8108C166.338 51.7568 166.858 53.223 166.858 55.2095C166.858 58.2365 166.044 60.6294 164.415 62.3883C162.827 64.1294 160.671 65 157.946 65ZM158.682 52.6554C158.457 53.1668 158.254 53.8053 158.074 54.5709C157.894 55.3366 157.69 56.3254 157.462 57.5374C157.235 58.7464 157.121 60.0988 157.121 61.5946C157.121 62.0853 157.202 62.4918 157.365 62.814C157.524 63.1362 157.821 63.2973 158.256 63.2973C158.693 63.2973 159.048 63.1938 159.32 62.9869C159.595 62.777 159.837 62.4267 160.047 61.936C160.426 61.064 160.766 59.8195 161.067 58.2025C161.369 56.5855 161.534 55.4267 161.564 54.7261C161.593 54.0255 161.608 53.4151 161.608 52.8948C161.608 52.3746 161.531 51.9445 161.378 51.6045C161.227 51.2646 160.939 51.0946 160.513 51.0946C160.087 51.0946 159.732 51.2276 159.449 51.4937C159.165 51.7568 158.909 52.144 158.682 52.6554ZM177.642 63.2397C176.731 64.4132 175.151 65 172.902 65C171.728 65 170.716 64.6453 169.864 63.9358C169.013 63.2264 168.587 62.3602 168.587 61.3374C168.587 60.7698 168.615 60.3442 168.672 60.0604L170.574 49.9595L176.334 49.3919L174.263 60.3442C174.186 60.761 174.148 61.0921 174.148 61.3374C174.148 62.4371 174.479 62.9869 175.141 62.9869C175.88 62.9869 176.514 62.4844 177.043 61.4793C177.215 61.1601 177.337 60.792 177.411 60.3752L179.429 49.9595L185.02 49.3919L182.918 60.4595C182.862 60.7432 182.834 61.0359 182.834 61.3374C182.834 61.6419 182.918 61.9597 183.087 62.2908C183.258 62.6218 183.619 62.8243 184.169 62.8982C184.054 63.3535 183.798 63.7318 183.402 64.0334C182.568 64.6778 181.702 65 180.803 65C179.905 65 179.191 64.8389 178.662 64.5167C178.133 64.1945 177.793 63.7688 177.642 63.2397ZM195.378 49.3919C196.058 49.3919 196.663 49.4673 197.192 49.618C197.213 49.5441 197.241 49.4022 197.276 49.1924L197.418 48.3144C197.495 47.936 197.59 47.435 197.702 46.8112L198.159 44.5676L203.803 44L200.655 60.4595C200.637 60.5718 200.628 60.7226 200.628 60.9117V61.3685C200.628 61.7853 200.732 62.1489 200.939 62.4592C201.146 62.7726 201.421 62.9293 201.764 62.9293C201.385 63.819 200.618 64.4531 199.462 64.8315C199.066 64.9438 198.589 65 198.03 65C197.471 65 196.936 64.8537 196.425 64.561C195.916 64.2684 195.585 63.8752 195.432 63.3815C195.13 63.8752 194.676 64.2684 194.07 64.561C193.464 64.8537 192.722 65 191.844 65C190.963 65 190.159 64.8862 189.432 64.6586C188.702 64.431 188.111 64.0718 187.659 63.5811C186.825 62.6174 186.408 61.0374 186.408 58.841C186.408 56.0032 187.24 53.724 188.905 52.0036C190.572 50.2625 192.73 49.3919 195.378 49.3919ZM195.179 51.0946C194.478 51.0946 193.939 51.473 193.56 52.2297C193.182 52.9865 192.799 54.3019 192.412 56.1761C192.025 58.0473 191.831 59.8254 191.831 61.5103C191.831 62.6632 192.171 63.2397 192.851 63.2397C193.457 63.2397 193.973 62.9367 194.398 62.3307C194.824 61.7276 195.121 60.9236 195.29 59.9185L196.824 51.6045C196.428 51.2646 195.879 51.0946 195.179 51.0946ZM215.669 55.2937L221.398 54.7838C220.038 57.7724 219.358 60.9975 219.358 64.459C218.847 64.8197 218.217 65 217.469 65C216.721 65 216.111 64.8256 215.638 64.4768C215.165 64.125 214.881 63.7703 214.787 63.4126C214.314 63.9033 213.694 64.2905 212.929 64.5743C212.163 64.8581 211.374 65 210.561 65C209.745 65 208.982 64.867 208.273 64.6009C207.563 64.3378 206.935 63.9122 206.388 63.3239C205.176 62.038 204.57 60.1757 204.57 57.7369C204.57 53.9531 205.583 50.9261 207.608 48.6558C209.689 46.3087 212.574 45.1351 216.263 45.1351C218.817 45.1351 220.548 45.7973 221.455 47.1216C221.739 47.5384 221.881 47.9966 221.881 48.4962C221.881 48.9987 221.773 49.4628 221.557 49.8885C221.339 50.3142 221.059 50.697 220.719 51.037C219.906 51.7937 218.997 52.1721 217.992 52.1721C217.596 52.1721 217.209 52.1056 216.831 51.9726C216.908 51.405 216.946 50.7901 216.946 50.128C216.946 49.4658 216.922 48.984 216.875 48.6824C216.828 48.3809 216.746 48.106 216.631 47.8577C216.386 47.3492 215.994 47.095 215.456 47.095C214.915 47.095 214.348 47.3832 213.753 47.9597C213.156 48.5361 212.621 49.2973 212.148 50.2432C211.108 52.3628 210.587 54.6995 210.587 57.2536C210.587 58.4272 210.815 59.4293 211.27 60.2599C211.761 61.1674 212.441 61.6212 213.31 61.6212C213.614 61.6212 213.904 61.5458 214.179 61.3951C214.451 61.2443 214.645 61.1128 214.76 61.0004L215.669 55.2937ZM224.023 63.5811C223.579 63.0904 223.259 62.4563 223.061 61.6788C222.863 60.9044 222.764 59.883 222.764 58.6149C222.764 57.3467 222.981 56.1362 223.415 54.9833C223.85 53.8275 224.465 52.8342 225.26 52.0036C226.886 50.2625 229.042 49.3919 231.729 49.3919C232.693 49.3919 233.525 49.553 234.226 49.8752L239.081 49.3919L236.979 60.4595C236.923 60.6871 236.895 61.0093 236.895 61.4261C236.895 61.84 237.022 62.1799 237.276 62.4459C237.534 62.712 237.851 62.8628 238.23 62.8982C238.041 63.5427 237.6 64.0541 236.908 64.4324C236.217 64.8108 235.484 65 234.709 65C233.935 65 233.287 64.8537 232.767 64.561C232.247 64.2684 231.91 63.8752 231.756 63.3815C231.454 63.8545 230.981 64.2432 230.337 64.5477C229.696 64.8492 228.945 65 228.084 65C227.221 65 226.441 64.8862 225.743 64.6586C225.043 64.431 224.469 64.0718 224.023 63.5811ZM230.013 52.0612C229.795 52.4012 229.591 52.8594 229.401 53.4358C229.212 54.0122 228.962 55.072 228.652 56.6151C228.339 58.1552 228.182 59.4751 228.182 60.5747C228.182 61.6715 228.268 62.3809 228.439 62.7031C228.608 63.0224 228.844 63.182 229.149 63.182C229.752 63.182 230.276 62.8938 230.723 62.3174C231.166 61.7409 231.474 60.9413 231.645 59.9185L233.148 51.6045C232.752 51.2646 232.322 51.0946 231.858 51.0946C231.394 51.0946 231.024 51.17 230.749 51.3207C230.474 51.4715 230.229 51.7183 230.013 52.0612ZM252.104 55.2937L257.837 54.7838C256.475 57.7724 255.793 60.9975 255.793 64.459C255.282 64.8197 254.654 65 253.909 65C253.161 65 252.55 64.8256 252.078 64.4768C251.605 64.125 251.321 63.7703 251.226 63.4126C250.753 63.9033 250.134 64.2905 249.368 64.5743C248.6 64.8581 247.809 65 246.996 65C246.183 65 245.422 64.867 244.712 64.6009C244.003 64.3378 243.373 63.9122 242.823 63.3239C241.614 62.038 241.01 60.1757 241.01 57.7369C241.01 53.9531 242.022 50.9261 244.047 48.6558C246.128 46.3087 249.014 45.1351 252.703 45.1351C255.257 45.1351 256.988 45.7973 257.895 47.1216C258.179 47.5384 258.321 47.9966 258.321 48.4962C258.321 48.9987 258.211 49.4628 257.993 49.8885C257.777 50.3142 257.497 50.697 257.155 51.037C256.342 51.7937 255.434 52.1721 254.432 52.1721C254.036 52.1721 253.649 52.1056 253.27 51.9726C253.344 51.405 253.381 50.7901 253.381 50.128C253.381 49.4658 253.357 48.984 253.31 48.6824C253.263 48.3809 253.183 48.106 253.071 47.8577C252.825 47.3492 252.432 47.095 251.891 47.095C251.353 47.095 250.786 47.3832 250.189 47.9597C249.594 48.5361 249.061 49.2973 248.588 50.2432C247.547 52.3628 247.027 54.6995 247.027 57.2536C247.027 58.4272 247.253 59.4293 247.705 60.2599C248.199 61.1674 248.88 61.6212 249.75 61.6212C250.051 61.6212 250.339 61.5458 250.614 61.3951C250.889 61.2443 251.083 61.1128 251.195 61.0004L252.104 55.2937ZM260.462 63.5811C260.019 63.0904 259.697 62.4563 259.496 61.6788C259.298 60.9044 259.199 59.883 259.199 58.6149C259.199 57.3467 259.416 56.1362 259.851 54.9833C260.288 53.8275 260.903 52.8342 261.695 52.0036C263.324 50.2625 265.482 49.3919 268.169 49.3919C269.133 49.3919 269.965 49.553 270.665 49.8752L275.516 49.3919L273.419 60.4595C273.36 60.6871 273.33 61.0093 273.33 61.4261C273.33 61.84 273.459 62.1799 273.716 62.4459C273.97 62.712 274.287 62.8628 274.665 62.8982C274.476 63.5427 274.037 64.0541 273.348 64.4324C272.656 64.8108 271.923 65 271.149 65C270.371 65 269.722 64.8537 269.202 64.561C268.682 64.2684 268.346 63.8752 268.196 63.3815C267.894 63.8545 267.421 64.2432 266.777 64.5477C266.132 64.8492 265.38 65 264.52 65C263.659 65 262.879 64.8862 262.178 64.6586C261.478 64.431 260.906 64.0718 260.462 63.5811ZM266.448 52.0612C266.233 52.4012 266.03 52.8594 265.841 53.4358C265.652 54.0122 265.401 55.072 265.087 56.6151C264.777 58.1552 264.622 59.4751 264.622 60.5747C264.622 61.6715 264.706 62.3809 264.874 62.7031C265.046 63.0224 265.282 63.182 265.584 63.182C266.19 63.182 266.715 62.8938 267.158 62.3174C267.604 61.7409 267.912 60.9413 268.08 59.9185L269.588 51.6045C269.189 51.2646 268.757 51.0946 268.293 51.0946C267.832 51.0946 267.464 51.17 267.189 51.3207C266.914 51.4715 266.667 51.7183 266.448 52.0612Z" fill="#3C3C3C"/>
<path d="M95.6367 210.236H82.0244L79.4365 218H71.1812L85.2075 180.32H92.4019L106.506 218H98.2505L95.6367 210.236ZM84.1206 203.948H93.5405L88.8047 189.844L84.1206 203.948ZM139.036 205.449C138.742 209.503 137.241 212.695 134.533 215.024C131.841 217.353 128.287 218.518 123.871 218.518C119.04 218.518 115.236 216.896 112.458 213.652C109.698 210.392 108.317 205.923 108.317 200.247V197.944C108.317 194.321 108.956 191.129 110.232 188.369C111.509 185.608 113.329 183.495 115.693 182.028C118.074 180.545 120.834 179.803 123.974 179.803C128.322 179.803 131.824 180.967 134.481 183.296C137.138 185.625 138.673 188.895 139.087 193.104H131.324C131.134 190.672 130.452 188.912 129.279 187.825C128.123 186.721 126.355 186.169 123.974 186.169C121.386 186.169 119.445 187.101 118.151 188.964C116.875 190.81 116.219 193.682 116.185 197.582V200.428C116.185 204.5 116.797 207.476 118.022 209.356C119.264 211.237 121.214 212.177 123.871 212.177C126.269 212.177 128.054 211.634 129.228 210.547C130.418 209.443 131.099 207.743 131.272 205.449H139.036ZM175.085 200.014C175.085 203.723 174.429 206.976 173.118 209.771C171.807 212.565 169.926 214.722 167.477 216.24C165.044 217.758 162.249 218.518 159.092 218.518C155.969 218.518 153.183 217.767 150.733 216.266C148.283 214.765 146.385 212.626 145.04 209.848C143.694 207.053 143.012 203.844 142.995 200.221V198.358C142.995 194.649 143.659 191.388 144.988 188.576C146.333 185.746 148.223 183.581 150.655 182.08C153.105 180.562 155.9 179.803 159.04 179.803C162.18 179.803 164.966 180.562 167.399 182.08C169.849 183.581 171.738 185.746 173.066 188.576C174.412 191.388 175.085 194.64 175.085 198.332V200.014ZM167.218 198.306C167.218 194.355 166.51 191.353 165.096 189.3C163.681 187.247 161.662 186.221 159.04 186.221C156.435 186.221 154.425 187.239 153.01 189.274C151.596 191.293 150.88 194.26 150.862 198.177V200.014C150.862 203.861 151.57 206.846 152.984 208.968C154.399 211.09 156.435 212.151 159.092 212.151C161.697 212.151 163.698 211.133 165.096 209.098C166.493 207.045 167.201 204.06 167.218 200.144V198.306ZM209.245 180.32V205.138C209.245 209.262 207.951 212.522 205.363 214.92C202.793 217.319 199.273 218.518 194.805 218.518C190.405 218.518 186.912 217.353 184.324 215.024C181.736 212.695 180.416 209.494 180.364 205.423V180.32H188.128V205.19C188.128 207.657 188.715 209.46 189.888 210.599C191.078 211.72 192.717 212.281 194.805 212.281C199.17 212.281 201.387 209.986 201.456 205.397V180.32H209.245ZM235.15 208.114C235.15 206.648 234.632 205.526 233.597 204.75C232.562 203.956 230.699 203.128 228.007 202.266C225.316 201.386 223.185 200.523 221.615 199.678C217.337 197.366 215.197 194.252 215.197 190.335C215.197 188.3 215.767 186.488 216.905 184.901C218.061 183.296 219.709 182.046 221.848 181.148C224.005 180.251 226.42 179.803 229.094 179.803C231.786 179.803 234.184 180.294 236.289 181.278C238.393 182.244 240.024 183.616 241.18 185.393C242.353 187.17 242.939 189.188 242.939 191.448H235.176C235.176 189.723 234.632 188.386 233.545 187.437C232.458 186.471 230.932 185.988 228.965 185.988C227.067 185.988 225.592 186.393 224.54 187.204C223.487 187.998 222.961 189.05 222.961 190.361C222.961 191.586 223.573 192.613 224.798 193.441C226.041 194.269 227.861 195.045 230.259 195.77C234.675 197.098 237.893 198.746 239.912 200.713C241.93 202.68 242.939 205.13 242.939 208.062C242.939 211.323 241.706 213.885 239.239 215.749C236.772 217.595 233.451 218.518 229.275 218.518C226.377 218.518 223.737 217.991 221.356 216.939C218.976 215.869 217.155 214.411 215.896 212.565C214.654 210.719 214.033 208.58 214.033 206.147H221.822C221.822 210.305 224.307 212.384 229.275 212.384C231.121 212.384 232.562 212.013 233.597 211.271C234.632 210.512 235.15 209.46 235.15 208.114ZM276.582 186.609H265.04V218H257.276V186.609H245.89V180.32H276.582V186.609ZM289.289 218H281.525V180.32H289.289V218ZM326.088 205.449C325.795 209.503 324.294 212.695 321.585 215.024C318.894 217.353 315.34 218.518 310.923 218.518C306.093 218.518 302.288 216.896 299.511 213.652C296.75 210.392 295.37 205.923 295.37 200.247V197.944C295.37 194.321 296.008 191.129 297.285 188.369C298.562 185.608 300.382 183.495 302.746 182.028C305.126 180.545 307.887 179.803 311.027 179.803C315.375 179.803 318.877 180.967 321.534 183.296C324.191 185.625 325.726 188.895 326.14 193.104H318.376C318.187 190.672 317.505 188.912 316.332 187.825C315.176 186.721 313.408 186.169 311.027 186.169C308.439 186.169 306.498 187.101 305.204 188.964C303.927 190.81 303.272 193.682 303.237 197.582V200.428C303.237 204.5 303.85 207.476 305.075 209.356C306.317 211.237 308.266 212.177 310.923 212.177C313.321 212.177 315.107 211.634 316.28 210.547C317.471 209.443 318.152 207.743 318.325 205.449H326.088Z" fill="#4A4A4A"/>
</svg>
