<svg width="400" height="400" viewBox="0 0 400 400" fill="none" xmlns="http://www.w3.org/2000/svg">
<path d="M139.473 50.5572C139.964 50.9179 140.209 51.481 140.209 52.2466C140.209 53.0122 140.043 53.6655 139.712 54.2065C139.381 54.7445 138.894 55.2219 138.249 55.6387C136.869 56.5285 134.972 56.9734 132.56 56.9734C130.148 56.9734 128.284 56.3438 126.969 55.0845C125.656 53.8252 125 52.0796 125 49.8478C125 46.6877 125.822 43.9075 127.465 41.5072C128.716 39.7276 130.457 38.4595 132.689 37.7027C133.842 37.3243 134.986 37.1351 136.121 37.1351C137.256 37.1351 138.174 37.2105 138.874 37.3613C139.575 37.512 140.19 37.7397 140.719 38.0441C141.875 38.7063 142.453 39.5665 142.453 40.6248C142.453 41.5914 141.997 42.4339 141.087 43.1522C140.256 43.7937 139.5 44.1144 138.817 44.1144C138.137 44.1144 137.655 44.0671 137.371 43.9726C137.448 43.2927 137.486 42.731 137.486 42.2876C137.486 41.8412 137.476 41.4569 137.455 41.1347C137.438 40.8155 137.382 40.5036 137.287 40.1991C137.098 39.4985 136.715 39.1482 136.139 39.1482C135.559 39.1482 134.981 39.4187 134.405 39.9597C133.828 40.4977 133.295 41.2204 132.804 42.128C131.687 44.1913 131.128 46.4438 131.128 48.8856C131.128 50.0562 131.459 50.9785 132.121 51.6525C132.783 52.3235 133.824 52.659 135.243 52.659C136.301 52.659 137.333 52.3087 138.338 51.6081C138.772 51.3066 139.151 50.9563 139.473 50.5572ZM149.348 54.8716C148.76 56.2905 147.53 57 145.659 57C144.713 57 143.937 56.6689 143.331 56.0068C142.84 55.4569 142.595 54.8701 142.595 54.2464C142.595 52.8275 142.926 50.5676 143.588 47.4666L145.659 36.5676L151.418 36L148.665 50.3577C148.343 51.7589 148.182 52.7048 148.182 53.1955C148.182 54.2745 148.57 54.8332 149.348 54.8716ZM157.946 57C153.783 57 151.702 55.0416 151.702 51.1248C151.702 48.3431 152.468 46.0536 153.999 44.2563C155.628 42.3467 157.851 41.3919 160.668 41.3919C162.714 41.3919 164.257 41.8649 165.297 42.8108C166.338 43.7568 166.858 45.223 166.858 47.2095C166.858 50.2365 166.044 52.6294 164.415 54.3883C162.827 56.1294 160.671 57 157.946 57ZM158.682 44.6554C158.457 45.1668 158.254 45.8053 158.074 46.5709C157.894 47.3366 157.69 48.3254 157.462 49.5374C157.235 50.7464 157.121 52.0988 157.121 53.5946C157.121 54.0853 157.202 54.4918 157.365 54.814C157.524 55.1362 157.821 55.2973 158.256 55.2973C158.693 55.2973 159.048 55.1938 159.32 54.9869C159.595 54.777 159.837 54.4267 160.047 53.936C160.426 53.064 160.766 51.8195 161.067 50.2025C161.369 48.5855 161.534 47.4267 161.564 46.7261C161.593 46.0255 161.608 45.4151 161.608 44.8948C161.608 44.3746 161.531 43.9445 161.378 43.6045C161.227 43.2646 160.939 43.0946 160.513 43.0946C160.087 43.0946 159.732 43.2276 159.449 43.4937C159.165 43.7568 158.909 44.144 158.682 44.6554ZM177.642 55.2397C176.731 56.4132 175.151 57 172.902 57C171.728 57 170.716 56.6453 169.864 55.9358C169.013 55.2264 168.587 54.3602 168.587 53.3374C168.587 52.7698 168.615 52.3442 168.672 52.0604L170.574 41.9595L176.334 41.3919L174.263 52.3442C174.186 52.761 174.148 53.0921 174.148 53.3374C174.148 54.4371 174.479 54.9869 175.141 54.9869C175.88 54.9869 176.514 54.4844 177.043 53.4793C177.215 53.1601 177.337 52.792 177.411 52.3752L179.429 41.9595L185.02 41.3919L182.918 52.4595C182.862 52.7432 182.834 53.0359 182.834 53.3374C182.834 53.6419 182.918 53.9597 183.087 54.2908C183.258 54.6218 183.619 54.8243 184.169 54.8982C184.054 55.3535 183.798 55.7318 183.402 56.0334C182.568 56.6778 181.702 57 180.803 57C179.905 57 179.191 56.8389 178.662 56.5167C178.133 56.1945 177.793 55.7688 177.642 55.2397ZM195.378 41.3919C196.058 41.3919 196.663 41.4673 197.192 41.618C197.213 41.5441 197.241 41.4022 197.276 41.1924L197.418 40.3144C197.495 39.936 197.59 39.435 197.702 38.8112L198.159 36.5676L203.803 36L200.655 52.4595C200.637 52.5718 200.628 52.7226 200.628 52.9117V53.3685C200.628 53.7853 200.732 54.1489 200.939 54.4592C201.146 54.7726 201.421 54.9293 201.764 54.9293C201.385 55.819 200.618 56.4531 199.462 56.8315C199.066 56.9438 198.589 57 198.03 57C197.471 57 196.936 56.8537 196.425 56.561C195.916 56.2684 195.585 55.8752 195.432 55.3815C195.13 55.8752 194.676 56.2684 194.07 56.561C193.464 56.8537 192.722 57 191.844 57C190.963 57 190.159 56.8862 189.432 56.6586C188.702 56.431 188.111 56.0718 187.659 55.5811C186.825 54.6174 186.408 53.0374 186.408 50.841C186.408 48.0032 187.24 45.724 188.905 44.0036C190.572 42.2625 192.73 41.3919 195.378 41.3919ZM195.179 43.0946C194.478 43.0946 193.939 43.473 193.56 44.2297C193.182 44.9865 192.799 46.3019 192.412 48.1761C192.025 50.0473 191.831 51.8254 191.831 53.5103C191.831 54.6632 192.171 55.2397 192.851 55.2397C193.457 55.2397 193.973 54.9367 194.398 54.3307C194.824 53.7276 195.121 52.9236 195.29 51.9185L196.824 43.6045C196.428 43.2646 195.879 43.0946 195.179 43.0946ZM215.669 47.2937L221.398 46.7838C220.038 49.7724 219.358 52.9975 219.358 56.459C218.847 56.8197 218.217 57 217.469 57C216.721 57 216.111 56.8256 215.638 56.4768C215.165 56.125 214.881 55.7703 214.787 55.4126C214.314 55.9033 213.694 56.2905 212.929 56.5743C212.163 56.8581 211.374 57 210.561 57C209.745 57 208.982 56.867 208.273 56.6009C207.563 56.3378 206.935 55.9122 206.388 55.3239C205.176 54.038 204.57 52.1757 204.57 49.7369C204.57 45.9531 205.583 42.9261 207.608 40.6558C209.689 38.3087 212.574 37.1351 216.263 37.1351C218.817 37.1351 220.548 37.7973 221.455 39.1216C221.739 39.5384 221.881 39.9966 221.881 40.4962C221.881 40.9987 221.773 41.4628 221.557 41.8885C221.339 42.3142 221.059 42.697 220.719 43.037C219.906 43.7937 218.997 44.1721 217.992 44.1721C217.596 44.1721 217.209 44.1056 216.831 43.9726C216.908 43.405 216.946 42.7901 216.946 42.128C216.946 41.4658 216.922 40.984 216.875 40.6824C216.828 40.3809 216.746 40.106 216.631 39.8577C216.386 39.3492 215.994 39.095 215.456 39.095C214.915 39.095 214.348 39.3832 213.753 39.9597C213.156 40.5361 212.621 41.2973 212.148 42.2432C211.108 44.3628 210.587 46.6995 210.587 49.2536C210.587 50.4272 210.815 51.4293 211.27 52.2599C211.761 53.1674 212.441 53.6212 213.31 53.6212C213.614 53.6212 213.904 53.5458 214.179 53.3951C214.451 53.2443 214.645 53.1128 214.76 53.0004L215.669 47.2937ZM224.023 55.5811C223.579 55.0904 223.259 54.4563 223.061 53.6788C222.863 52.9044 222.764 51.883 222.764 50.6149C222.764 49.3467 222.981 48.1362 223.415 46.9833C223.85 45.8275 224.465 44.8342 225.26 44.0036C226.886 42.2625 229.042 41.3919 231.729 41.3919C232.693 41.3919 233.525 41.553 234.226 41.8752L239.081 41.3919L236.979 52.4595C236.923 52.6871 236.895 53.0093 236.895 53.4261C236.895 53.84 237.022 54.1799 237.276 54.4459C237.534 54.712 237.851 54.8628 238.23 54.8982C238.041 55.5427 237.6 56.0541 236.908 56.4324C236.217 56.8108 235.484 57 234.709 57C233.935 57 233.287 56.8537 232.767 56.561C232.247 56.2684 231.91 55.8752 231.756 55.3815C231.454 55.8545 230.981 56.2432 230.337 56.5477C229.696 56.8492 228.945 57 228.084 57C227.221 57 226.441 56.8862 225.743 56.6586C225.043 56.431 224.469 56.0718 224.023 55.5811ZM230.013 44.0612C229.795 44.4012 229.591 44.8594 229.401 45.4358C229.212 46.0122 228.962 47.072 228.652 48.6151C228.339 50.1552 228.182 51.4751 228.182 52.5747C228.182 53.6715 228.268 54.3809 228.439 54.7031C228.608 55.0224 228.844 55.182 229.149 55.182C229.752 55.182 230.276 54.8938 230.723 54.3174C231.166 53.7409 231.474 52.9413 231.645 51.9185L233.148 43.6045C232.752 43.2646 232.322 43.0946 231.858 43.0946C231.394 43.0946 231.024 43.17 230.749 43.3207C230.474 43.4715 230.229 43.7183 230.013 44.0612ZM252.104 47.2937L257.837 46.7838C256.475 49.7724 255.793 52.9975 255.793 56.459C255.282 56.8197 254.654 57 253.909 57C253.161 57 252.55 56.8256 252.078 56.4768C251.605 56.125 251.321 55.7703 251.226 55.4126C250.753 55.9033 250.134 56.2905 249.368 56.5743C248.6 56.8581 247.809 57 246.996 57C246.183 57 245.422 56.867 244.712 56.6009C244.003 56.3378 243.373 55.9122 242.823 55.3239C241.614 54.038 241.01 52.1757 241.01 49.7369C241.01 45.9531 242.022 42.9261 244.047 40.6558C246.128 38.3087 249.014 37.1351 252.703 37.1351C255.257 37.1351 256.988 37.7973 257.895 39.1216C258.179 39.5384 258.321 39.9966 258.321 40.4962C258.321 40.9987 258.211 41.4628 257.993 41.8885C257.777 42.3142 257.497 42.697 257.155 43.037C256.342 43.7937 255.434 44.1721 254.432 44.1721C254.036 44.1721 253.649 44.1056 253.27 43.9726C253.344 43.405 253.381 42.7901 253.381 42.128C253.381 41.4658 253.357 40.984 253.31 40.6824C253.263 40.3809 253.183 40.106 253.071 39.8577C252.825 39.3492 252.432 39.095 251.891 39.095C251.353 39.095 250.786 39.3832 250.189 39.9597C249.594 40.5361 249.061 41.2973 248.588 42.2432C247.547 44.3628 247.027 46.6995 247.027 49.2536C247.027 50.4272 247.253 51.4293 247.705 52.2599C248.199 53.1674 248.88 53.6212 249.75 53.6212C250.051 53.6212 250.339 53.5458 250.614 53.3951C250.889 53.2443 251.083 53.1128 251.195 53.0004L252.104 47.2937ZM260.462 55.5811C260.019 55.0904 259.697 54.4563 259.496 53.6788C259.298 52.9044 259.199 51.883 259.199 50.6149C259.199 49.3467 259.416 48.1362 259.851 46.9833C260.288 45.8275 260.903 44.8342 261.695 44.0036C263.324 42.2625 265.482 41.3919 268.169 41.3919C269.133 41.3919 269.965 41.553 270.665 41.8752L275.516 41.3919L273.419 52.4595C273.36 52.6871 273.33 53.0093 273.33 53.4261C273.33 53.84 273.459 54.1799 273.716 54.4459C273.97 54.712 274.287 54.8628 274.665 54.8982C274.476 55.5427 274.037 56.0541 273.348 56.4324C272.656 56.8108 271.923 57 271.149 57C270.371 57 269.722 56.8537 269.202 56.561C268.682 56.2684 268.346 55.8752 268.196 55.3815C267.894 55.8545 267.421 56.2432 266.777 56.5477C266.132 56.8492 265.38 57 264.52 57C263.659 57 262.879 56.8862 262.178 56.6586C261.478 56.431 260.906 56.0718 260.462 55.5811ZM266.448 44.0612C266.233 44.4012 266.03 44.8594 265.841 45.4358C265.652 46.0122 265.401 47.072 265.087 48.6151C264.777 50.1552 264.622 51.4751 264.622 52.5747C264.622 53.6715 264.706 54.3809 264.874 54.7031C265.046 55.0224 265.282 55.182 265.584 55.182C266.19 55.182 266.715 54.8938 267.158 54.3174C267.604 53.7409 267.912 52.9413 268.08 51.9185L269.588 43.6045C269.189 43.2646 268.757 43.0946 268.293 43.0946C267.832 43.0946 267.464 43.17 267.189 43.3207C266.914 43.4715 266.667 43.7183 266.448 44.0612Z" fill="#3C3C3C"/>
<path opacity="0.4" d="M0 0H400V400H0V0Z" fill="#ADC669"/>
<path d="M93.0342 205.67H78.1279V215.763H95.6221V222H70.3643V184.32H95.5703V190.609H78.1279V199.589H93.0342V205.67ZM128.695 184.32V209.138C128.695 213.262 127.401 216.522 124.813 218.92C122.243 221.319 118.723 222.518 114.255 222.518C109.855 222.518 106.362 221.353 103.774 219.024C101.186 216.695 99.8662 213.494 99.8145 209.423V184.32H107.578V209.19C107.578 211.657 108.165 213.46 109.338 214.599C110.528 215.72 112.167 216.281 114.255 216.281C118.62 216.281 120.837 213.986 120.906 209.397V184.32H128.695ZM149.01 208.207H142.825V222H135.062V184.32H149.062C153.513 184.32 156.946 185.312 159.362 187.296C161.777 189.28 162.985 192.084 162.985 195.707C162.985 198.278 162.424 200.426 161.303 202.151C160.199 203.859 158.516 205.222 156.256 206.24L164.408 221.638V222H156.075L149.01 208.207ZM142.825 201.918H149.088C151.037 201.918 152.547 201.426 153.617 200.443C154.686 199.442 155.221 198.071 155.221 196.328C155.221 194.551 154.712 193.154 153.694 192.136C152.694 191.118 151.15 190.609 149.062 190.609H142.825V201.918ZM199.862 204.014C199.862 207.723 199.207 210.976 197.896 213.771C196.584 216.565 194.704 218.722 192.254 220.24C189.821 221.758 187.026 222.518 183.869 222.518C180.746 222.518 177.96 221.767 175.51 220.266C173.06 218.765 171.163 216.626 169.817 213.848C168.471 211.053 167.79 207.844 167.772 204.221V202.358C167.772 198.649 168.437 195.388 169.765 192.576C171.111 189.746 173 187.581 175.433 186.08C177.882 184.562 180.677 183.803 183.817 183.803C186.957 183.803 189.744 184.562 192.176 186.08C194.626 187.581 196.515 189.746 197.844 192.576C199.189 195.388 199.862 198.64 199.862 202.332V204.014ZM191.995 202.306C191.995 198.355 191.288 195.353 189.873 193.3C188.458 191.247 186.44 190.221 183.817 190.221C181.212 190.221 179.202 191.239 177.788 193.274C176.373 195.293 175.657 198.26 175.64 202.177V204.014C175.64 207.861 176.347 210.846 177.762 212.968C179.176 215.09 181.212 216.151 183.869 216.151C186.474 216.151 188.476 215.133 189.873 213.098C191.271 211.045 191.978 208.06 191.995 204.144V202.306ZM249.369 222H241.605V205.852H226.466V222H218.702V184.32H226.466V199.589H241.605V184.32H249.369V222ZM264.43 222H256.667V184.32H264.43V222ZM299.237 190.609H287.695V222H279.932V190.609H268.545V184.32H299.237V190.609ZM322.813 212.114C322.813 210.648 322.295 209.526 321.26 208.75C320.225 207.956 318.362 207.128 315.67 206.266C312.979 205.386 310.848 204.523 309.278 203.678C305 201.366 302.86 198.252 302.86 194.335C302.86 192.3 303.43 190.488 304.568 188.901C305.724 187.296 307.372 186.046 309.511 185.148C311.668 184.251 314.083 183.803 316.757 183.803C319.449 183.803 321.847 184.294 323.952 185.278C326.056 186.244 327.687 187.616 328.843 189.393C330.016 191.17 330.603 193.188 330.603 195.448H322.839C322.839 193.723 322.295 192.386 321.208 191.437C320.122 190.471 318.595 189.988 316.628 189.988C314.73 189.988 313.255 190.393 312.203 191.204C311.15 191.998 310.624 193.05 310.624 194.361C310.624 195.586 311.236 196.613 312.461 197.441C313.704 198.269 315.524 199.045 317.922 199.77C322.339 201.098 325.556 202.746 327.575 204.713C329.593 206.68 330.603 209.13 330.603 212.062C330.603 215.323 329.369 217.885 326.902 219.749C324.435 221.595 321.114 222.518 316.938 222.518C314.04 222.518 311.4 221.991 309.02 220.939C306.639 219.869 304.819 218.411 303.559 216.565C302.317 214.719 301.696 212.58 301.696 210.147H309.485C309.485 214.305 311.97 216.384 316.938 216.384C318.785 216.384 320.225 216.013 321.26 215.271C322.295 214.512 322.813 213.46 322.813 212.114Z" fill="#4A4A4A"/>
</svg>
