<svg width="400" height="400" viewBox="0 0 400 400" fill="none" xmlns="http://www.w3.org/2000/svg">
<path d="M139.473 52.5572C139.964 52.9179 140.209 53.481 140.209 54.2466C140.209 55.0122 140.043 55.6655 139.712 56.2065C139.381 56.7445 138.894 57.2219 138.249 57.6387C136.869 58.5285 134.972 58.9734 132.56 58.9734C130.148 58.9734 128.284 58.3438 126.969 57.0845C125.656 55.8252 125 54.0796 125 51.8478C125 48.6877 125.822 45.9075 127.465 43.5072C128.716 41.7276 130.457 40.4595 132.689 39.7027C133.842 39.3243 134.986 39.1351 136.121 39.1351C137.256 39.1351 138.174 39.2105 138.874 39.3613C139.575 39.512 140.19 39.7397 140.719 40.0441C141.875 40.7063 142.453 41.5665 142.453 42.6248C142.453 43.5914 141.997 44.4339 141.087 45.1522C140.256 45.7937 139.5 46.1144 138.817 46.1144C138.137 46.1144 137.655 46.0671 137.371 45.9726C137.448 45.2927 137.486 44.731 137.486 44.2876C137.486 43.8412 137.476 43.4569 137.455 43.1347C137.438 42.8155 137.382 42.5036 137.287 42.1991C137.098 41.4985 136.715 41.1482 136.139 41.1482C135.559 41.1482 134.981 41.4187 134.405 41.9597C133.828 42.4977 133.295 43.2204 132.804 44.128C131.687 46.1913 131.128 48.4438 131.128 50.8856C131.128 52.0562 131.459 52.9785 132.121 53.6525C132.783 54.3235 133.824 54.659 135.243 54.659C136.301 54.659 137.333 54.3087 138.338 53.6081C138.772 53.3066 139.151 52.9563 139.473 52.5572ZM149.348 56.8716C148.76 58.2905 147.53 59 145.659 59C144.713 59 143.937 58.6689 143.331 58.0068C142.84 57.4569 142.595 56.8701 142.595 56.2464C142.595 54.8275 142.926 52.5676 143.588 49.4666L145.659 38.5676L151.418 38L148.665 52.3577C148.343 53.7589 148.182 54.7048 148.182 55.1955C148.182 56.2745 148.57 56.8332 149.348 56.8716ZM157.946 59C153.783 59 151.702 57.0416 151.702 53.1248C151.702 50.3431 152.468 48.0536 153.999 46.2563C155.628 44.3467 157.851 43.3919 160.668 43.3919C162.714 43.3919 164.257 43.8649 165.297 44.8108C166.338 45.7568 166.858 47.223 166.858 49.2095C166.858 52.2365 166.044 54.6294 164.415 56.3883C162.827 58.1294 160.671 59 157.946 59ZM158.682 46.6554C158.457 47.1668 158.254 47.8053 158.074 48.5709C157.894 49.3366 157.69 50.3254 157.462 51.5374C157.235 52.7464 157.121 54.0988 157.121 55.5946C157.121 56.0853 157.202 56.4918 157.365 56.814C157.524 57.1362 157.821 57.2973 158.256 57.2973C158.693 57.2973 159.048 57.1938 159.32 56.9869C159.595 56.777 159.837 56.4267 160.047 55.936C160.426 55.064 160.766 53.8195 161.067 52.2025C161.369 50.5855 161.534 49.4267 161.564 48.7261C161.593 48.0255 161.608 47.4151 161.608 46.8948C161.608 46.3746 161.531 45.9445 161.378 45.6045C161.227 45.2646 160.939 45.0946 160.513 45.0946C160.087 45.0946 159.732 45.2276 159.449 45.4937C159.165 45.7568 158.909 46.144 158.682 46.6554ZM177.642 57.2397C176.731 58.4132 175.151 59 172.902 59C171.728 59 170.716 58.6453 169.864 57.9358C169.013 57.2264 168.587 56.3602 168.587 55.3374C168.587 54.7698 168.615 54.3442 168.672 54.0604L170.574 43.9595L176.334 43.3919L174.263 54.3442C174.186 54.761 174.148 55.0921 174.148 55.3374C174.148 56.4371 174.479 56.9869 175.141 56.9869C175.88 56.9869 176.514 56.4844 177.043 55.4793C177.215 55.1601 177.337 54.792 177.411 54.3752L179.429 43.9595L185.02 43.3919L182.918 54.4595C182.862 54.7432 182.834 55.0359 182.834 55.3374C182.834 55.6419 182.918 55.9597 183.087 56.2908C183.258 56.6218 183.619 56.8243 184.169 56.8982C184.054 57.3535 183.798 57.7318 183.402 58.0334C182.568 58.6778 181.702 59 180.803 59C179.905 59 179.191 58.8389 178.662 58.5167C178.133 58.1945 177.793 57.7688 177.642 57.2397ZM195.378 43.3919C196.058 43.3919 196.663 43.4673 197.192 43.618C197.213 43.5441 197.241 43.4022 197.276 43.1924L197.418 42.3144C197.495 41.936 197.59 41.435 197.702 40.8112L198.159 38.5676L203.803 38L200.655 54.4595C200.637 54.5718 200.628 54.7226 200.628 54.9117V55.3685C200.628 55.7853 200.732 56.1489 200.939 56.4592C201.146 56.7726 201.421 56.9293 201.764 56.9293C201.385 57.819 200.618 58.4531 199.462 58.8315C199.066 58.9438 198.589 59 198.03 59C197.471 59 196.936 58.8537 196.425 58.561C195.916 58.2684 195.585 57.8752 195.432 57.3815C195.13 57.8752 194.676 58.2684 194.07 58.561C193.464 58.8537 192.722 59 191.844 59C190.963 59 190.159 58.8862 189.432 58.6586C188.702 58.431 188.111 58.0718 187.659 57.5811C186.825 56.6174 186.408 55.0374 186.408 52.841C186.408 50.0032 187.24 47.724 188.905 46.0036C190.572 44.2625 192.73 43.3919 195.378 43.3919ZM195.179 45.0946C194.478 45.0946 193.939 45.473 193.56 46.2297C193.182 46.9865 192.799 48.3019 192.412 50.1761C192.025 52.0473 191.831 53.8254 191.831 55.5103C191.831 56.6632 192.171 57.2397 192.851 57.2397C193.457 57.2397 193.973 56.9367 194.398 56.3307C194.824 55.7276 195.121 54.9236 195.29 53.9185L196.824 45.6045C196.428 45.2646 195.879 45.0946 195.179 45.0946ZM215.669 49.2937L221.398 48.7838C220.038 51.7724 219.358 54.9975 219.358 58.459C218.847 58.8197 218.217 59 217.469 59C216.721 59 216.111 58.8256 215.638 58.4768C215.165 58.125 214.881 57.7703 214.787 57.4126C214.314 57.9033 213.694 58.2905 212.929 58.5743C212.163 58.8581 211.374 59 210.561 59C209.745 59 208.982 58.867 208.273 58.6009C207.563 58.3378 206.935 57.9122 206.388 57.3239C205.176 56.038 204.57 54.1757 204.57 51.7369C204.57 47.9531 205.583 44.9261 207.608 42.6558C209.689 40.3087 212.574 39.1351 216.263 39.1351C218.817 39.1351 220.548 39.7973 221.455 41.1216C221.739 41.5384 221.881 41.9966 221.881 42.4962C221.881 42.9987 221.773 43.4628 221.557 43.8885C221.339 44.3142 221.059 44.697 220.719 45.037C219.906 45.7937 218.997 46.1721 217.992 46.1721C217.596 46.1721 217.209 46.1056 216.831 45.9726C216.908 45.405 216.946 44.7901 216.946 44.128C216.946 43.4658 216.922 42.984 216.875 42.6824C216.828 42.3809 216.746 42.106 216.631 41.8577C216.386 41.3492 215.994 41.095 215.456 41.095C214.915 41.095 214.348 41.3832 213.753 41.9597C213.156 42.5361 212.621 43.2973 212.148 44.2432C211.108 46.3628 210.587 48.6995 210.587 51.2536C210.587 52.4272 210.815 53.4293 211.27 54.2599C211.761 55.1674 212.441 55.6212 213.31 55.6212C213.614 55.6212 213.904 55.5458 214.179 55.3951C214.451 55.2443 214.645 55.1128 214.76 55.0004L215.669 49.2937ZM224.023 57.5811C223.579 57.0904 223.259 56.4563 223.061 55.6788C222.863 54.9044 222.764 53.883 222.764 52.6149C222.764 51.3467 222.981 50.1362 223.415 48.9833C223.85 47.8275 224.465 46.8342 225.26 46.0036C226.886 44.2625 229.042 43.3919 231.729 43.3919C232.693 43.3919 233.525 43.553 234.226 43.8752L239.081 43.3919L236.979 54.4595C236.923 54.6871 236.895 55.0093 236.895 55.4261C236.895 55.84 237.022 56.1799 237.276 56.4459C237.534 56.712 237.851 56.8628 238.23 56.8982C238.041 57.5427 237.6 58.0541 236.908 58.4324C236.217 58.8108 235.484 59 234.709 59C233.935 59 233.287 58.8537 232.767 58.561C232.247 58.2684 231.91 57.8752 231.756 57.3815C231.454 57.8545 230.981 58.2432 230.337 58.5477C229.696 58.8492 228.945 59 228.084 59C227.221 59 226.441 58.8862 225.743 58.6586C225.043 58.431 224.469 58.0718 224.023 57.5811ZM230.013 46.0612C229.795 46.4012 229.591 46.8594 229.401 47.4358C229.212 48.0122 228.962 49.072 228.652 50.6151C228.339 52.1552 228.182 53.4751 228.182 54.5747C228.182 55.6715 228.268 56.3809 228.439 56.7031C228.608 57.0224 228.844 57.182 229.149 57.182C229.752 57.182 230.276 56.8938 230.723 56.3174C231.166 55.7409 231.474 54.9413 231.645 53.9185L233.148 45.6045C232.752 45.2646 232.322 45.0946 231.858 45.0946C231.394 45.0946 231.024 45.17 230.749 45.3207C230.474 45.4715 230.229 45.7183 230.013 46.0612ZM252.104 49.2937L257.837 48.7838C256.475 51.7724 255.793 54.9975 255.793 58.459C255.282 58.8197 254.654 59 253.909 59C253.161 59 252.55 58.8256 252.078 58.4768C251.605 58.125 251.321 57.7703 251.226 57.4126C250.753 57.9033 250.134 58.2905 249.368 58.5743C248.6 58.8581 247.809 59 246.996 59C246.183 59 245.422 58.867 244.712 58.6009C244.003 58.3378 243.373 57.9122 242.823 57.3239C241.614 56.038 241.01 54.1757 241.01 51.7369C241.01 47.9531 242.022 44.9261 244.047 42.6558C246.128 40.3087 249.014 39.1351 252.703 39.1351C255.257 39.1351 256.988 39.7973 257.895 41.1216C258.179 41.5384 258.321 41.9966 258.321 42.4962C258.321 42.9987 258.211 43.4628 257.993 43.8885C257.777 44.3142 257.497 44.697 257.155 45.037C256.342 45.7937 255.434 46.1721 254.432 46.1721C254.036 46.1721 253.649 46.1056 253.27 45.9726C253.344 45.405 253.381 44.7901 253.381 44.128C253.381 43.4658 253.357 42.984 253.31 42.6824C253.263 42.3809 253.183 42.106 253.071 41.8577C252.825 41.3492 252.432 41.095 251.891 41.095C251.353 41.095 250.786 41.3832 250.189 41.9597C249.594 42.5361 249.061 43.2973 248.588 44.2432C247.547 46.3628 247.027 48.6995 247.027 51.2536C247.027 52.4272 247.253 53.4293 247.705 54.2599C248.199 55.1674 248.88 55.6212 249.75 55.6212C250.051 55.6212 250.339 55.5458 250.614 55.3951C250.889 55.2443 251.083 55.1128 251.195 55.0004L252.104 49.2937ZM260.462 57.5811C260.019 57.0904 259.697 56.4563 259.496 55.6788C259.298 54.9044 259.199 53.883 259.199 52.6149C259.199 51.3467 259.416 50.1362 259.851 48.9833C260.288 47.8275 260.903 46.8342 261.695 46.0036C263.324 44.2625 265.482 43.3919 268.169 43.3919C269.133 43.3919 269.965 43.553 270.665 43.8752L275.516 43.3919L273.419 54.4595C273.36 54.6871 273.33 55.0093 273.33 55.4261C273.33 55.84 273.459 56.1799 273.716 56.4459C273.97 56.712 274.287 56.8628 274.665 56.8982C274.476 57.5427 274.037 58.0541 273.348 58.4324C272.656 58.8108 271.923 59 271.149 59C270.371 59 269.722 58.8537 269.202 58.561C268.682 58.2684 268.346 57.8752 268.196 57.3815C267.894 57.8545 267.421 58.2432 266.777 58.5477C266.132 58.8492 265.38 59 264.52 59C263.659 59 262.879 58.8862 262.178 58.6586C261.478 58.431 260.906 58.0718 260.462 57.5811ZM266.448 46.0612C266.233 46.4012 266.03 46.8594 265.841 47.4358C265.652 48.0122 265.401 49.072 265.087 50.6151C264.777 52.1552 264.622 53.4751 264.622 54.5747C264.622 55.6715 264.706 56.3809 264.874 56.7031C265.046 57.0224 265.282 57.182 265.584 57.182C266.19 57.182 266.715 56.8938 267.158 56.3174C267.604 55.7409 267.912 54.9413 268.08 53.9185L269.588 45.6045C269.189 45.2646 268.757 45.0946 268.293 45.0946C267.832 45.0946 267.464 45.17 267.189 45.3207C266.914 45.4715 266.667 45.7183 266.448 46.0612Z" fill="#3C3C3C"/>
<rect opacity="0.4" width="400" height="400" fill="#5A5EB3"/>
<path d="M13.6196 218H5.85596V180.32H13.6196V218ZM51.4805 218H43.7168L28.6035 193.208V218H20.8398V180.32H28.6035L43.7427 205.164V180.32H51.4805V218ZM77.7993 208.114C77.7993 206.648 77.2817 205.526 76.2466 204.75C75.2114 203.956 73.3481 203.128 70.6567 202.266C67.9653 201.386 65.8346 200.523 64.2646 199.678C59.986 197.366 57.8467 194.252 57.8467 190.335C57.8467 188.3 58.416 186.488 59.5547 184.901C60.7106 183.296 62.3582 182.046 64.4976 181.148C66.6541 180.251 69.0695 179.803 71.7437 179.803C74.4351 179.803 76.8332 180.294 78.938 181.278C81.0428 182.244 82.6732 183.616 83.8291 185.393C85.0023 187.17 85.5889 189.188 85.5889 191.448H77.8252C77.8252 189.723 77.2817 188.386 76.1948 187.437C75.1079 186.471 73.5811 185.988 71.6143 185.988C69.7165 185.988 68.2414 186.393 67.189 187.204C66.1366 187.998 65.6104 189.05 65.6104 190.361C65.6104 191.586 66.2228 192.613 67.4478 193.441C68.6899 194.269 70.5101 195.045 72.9082 195.77C77.3249 197.098 80.5425 198.746 82.561 200.713C84.5796 202.68 85.5889 205.13 85.5889 208.062C85.5889 211.323 84.3553 213.885 81.8882 215.749C79.4211 217.595 76.0999 218.518 71.9248 218.518C69.0264 218.518 66.3867 217.991 64.0059 216.939C61.625 215.869 59.8049 214.411 58.5454 212.565C57.3032 210.719 56.6821 208.58 56.6821 206.147H64.4717C64.4717 210.305 66.9561 212.384 71.9248 212.384C73.7708 212.384 75.2114 212.013 76.2466 211.271C77.2817 210.512 77.7993 209.46 77.7993 208.114ZM119.231 186.609H107.689V218H99.9258V186.609H88.5391V180.32H119.231V186.609ZM137.631 204.207H131.446V218H123.683V180.32H137.683C142.134 180.32 145.568 181.312 147.983 183.296C150.398 185.28 151.606 188.084 151.606 191.707C151.606 194.278 151.045 196.426 149.924 198.151C148.82 199.859 147.138 201.222 144.877 202.24L153.029 217.638V218H144.696L137.631 204.207ZM131.446 197.918H137.709C139.659 197.918 141.168 197.426 142.238 196.443C143.307 195.442 143.842 194.071 143.842 192.328C143.842 190.551 143.333 189.154 142.315 188.136C141.315 187.118 139.771 186.609 137.683 186.609H131.446V197.918ZM186.051 180.32V205.138C186.051 209.262 184.757 212.522 182.169 214.92C179.598 217.319 176.079 218.518 171.61 218.518C167.211 218.518 163.717 217.353 161.129 215.024C158.542 212.695 157.222 209.494 157.17 205.423V180.32H164.934V205.19C164.934 207.657 165.52 209.46 166.693 210.599C167.884 211.72 169.523 212.281 171.61 212.281C175.975 212.281 178.192 209.986 178.261 205.397V180.32H186.051ZM202.562 180.32L212.24 207.648L221.867 180.32H232.063V218H224.274V207.7L225.05 189.921L214.88 218H209.549L199.404 189.947L200.181 207.7V218H192.417V180.32H202.562ZM261.514 201.67H246.607V211.763H264.102V218H238.844V180.32H264.05V186.609H246.607V195.589H261.514V201.67ZM299.297 218H291.533L276.42 193.208V218H268.656V180.32H276.42L291.559 205.164V180.32H299.297V218ZM333.664 186.609H322.122V218H314.358V186.609H302.972V180.32H333.664V186.609ZM356.282 210.236H342.67L340.082 218H331.827L345.853 180.32H353.047L367.151 218H358.896L356.282 210.236ZM344.766 203.948H354.186L349.45 189.844L344.766 203.948ZM378.435 211.763H394.919V218H370.671V180.32H378.435V211.763Z" fill="#4A4A4A"/>
</svg>
