<svg width="400" height="400" viewBox="0 0 400 400" fill="none" xmlns="http://www.w3.org/2000/svg">
<path d="M144.473 52.5572C144.964 52.9179 145.209 53.481 145.209 54.2466C145.209 55.0122 145.043 55.6655 144.712 56.2065C144.381 56.7445 143.894 57.2219 143.249 57.6387C141.869 58.5285 139.972 58.9734 137.56 58.9734C135.148 58.9734 133.284 58.3438 131.969 57.0845C130.656 55.8252 130 54.0796 130 51.8478C130 48.6877 130.822 45.9075 132.465 43.5072C133.716 41.7276 135.457 40.4595 137.689 39.7027C138.842 39.3243 139.986 39.1351 141.121 39.1351C142.256 39.1351 143.174 39.2105 143.874 39.3613C144.575 39.512 145.19 39.7397 145.719 40.0441C146.875 40.7063 147.453 41.5665 147.453 42.6248C147.453 43.5914 146.997 44.4339 146.087 45.1522C145.256 45.7937 144.5 46.1144 143.817 46.1144C143.137 46.1144 142.655 46.0671 142.371 45.9726C142.448 45.2927 142.486 44.731 142.486 44.2876C142.486 43.8412 142.476 43.4569 142.455 43.1347C142.438 42.8155 142.382 42.5036 142.287 42.1991C142.098 41.4985 141.715 41.1482 141.139 41.1482C140.559 41.1482 139.981 41.4187 139.405 41.9597C138.828 42.4977 138.295 43.2204 137.804 44.128C136.687 46.1913 136.128 48.4438 136.128 50.8856C136.128 52.0562 136.459 52.9785 137.121 53.6525C137.783 54.3235 138.824 54.659 140.243 54.659C141.301 54.659 142.333 54.3087 143.338 53.6081C143.772 53.3066 144.151 52.9563 144.473 52.5572ZM154.348 56.8716C153.76 58.2905 152.53 59 150.659 59C149.713 59 148.937 58.6689 148.331 58.0068C147.84 57.4569 147.595 56.8701 147.595 56.2464C147.595 54.8275 147.926 52.5676 148.588 49.4666L150.659 38.5676L156.418 38L153.665 52.3577C153.343 53.7589 153.182 54.7048 153.182 55.1955C153.182 56.2745 153.57 56.8332 154.348 56.8716ZM162.946 59C158.783 59 156.702 57.0416 156.702 53.1248C156.702 50.3431 157.468 48.0536 158.999 46.2563C160.628 44.3467 162.851 43.3919 165.668 43.3919C167.714 43.3919 169.257 43.8649 170.297 44.8108C171.338 45.7568 171.858 47.223 171.858 49.2095C171.858 52.2365 171.044 54.6294 169.415 56.3883C167.827 58.1294 165.671 59 162.946 59ZM163.682 46.6554C163.457 47.1668 163.254 47.8053 163.074 48.5709C162.894 49.3366 162.69 50.3254 162.462 51.5374C162.235 52.7464 162.121 54.0988 162.121 55.5946C162.121 56.0853 162.202 56.4918 162.365 56.814C162.524 57.1362 162.821 57.2973 163.256 57.2973C163.693 57.2973 164.048 57.1938 164.32 56.9869C164.595 56.777 164.837 56.4267 165.047 55.936C165.426 55.064 165.766 53.8195 166.067 52.2025C166.369 50.5855 166.534 49.4267 166.564 48.7261C166.593 48.0255 166.608 47.4151 166.608 46.8948C166.608 46.3746 166.531 45.9445 166.378 45.6045C166.227 45.2646 165.939 45.0946 165.513 45.0946C165.087 45.0946 164.732 45.2276 164.449 45.4937C164.165 45.7568 163.909 46.144 163.682 46.6554ZM182.642 57.2397C181.731 58.4132 180.151 59 177.902 59C176.728 59 175.716 58.6453 174.864 57.9358C174.013 57.2264 173.587 56.3602 173.587 55.3374C173.587 54.7698 173.615 54.3442 173.672 54.0604L175.574 43.9595L181.334 43.3919L179.263 54.3442C179.186 54.761 179.148 55.0921 179.148 55.3374C179.148 56.4371 179.479 56.9869 180.141 56.9869C180.88 56.9869 181.514 56.4844 182.043 55.4793C182.215 55.1601 182.337 54.792 182.411 54.3752L184.429 43.9595L190.02 43.3919L187.918 54.4595C187.862 54.7432 187.834 55.0359 187.834 55.3374C187.834 55.6419 187.918 55.9597 188.087 56.2908C188.258 56.6218 188.619 56.8243 189.169 56.8982C189.054 57.3535 188.798 57.7318 188.402 58.0334C187.568 58.6778 186.702 59 185.803 59C184.905 59 184.191 58.8389 183.662 58.5167C183.133 58.1945 182.793 57.7688 182.642 57.2397ZM200.378 43.3919C201.058 43.3919 201.663 43.4673 202.192 43.618C202.213 43.5441 202.241 43.4022 202.276 43.1924L202.418 42.3144C202.495 41.936 202.59 41.435 202.702 40.8112L203.159 38.5676L208.803 38L205.655 54.4595C205.637 54.5718 205.628 54.7226 205.628 54.9117V55.3685C205.628 55.7853 205.732 56.1489 205.939 56.4592C206.146 56.7726 206.421 56.9293 206.764 56.9293C206.385 57.819 205.618 58.4531 204.462 58.8315C204.066 58.9438 203.589 59 203.03 59C202.471 59 201.936 58.8537 201.425 58.561C200.916 58.2684 200.585 57.8752 200.432 57.3815C200.13 57.8752 199.676 58.2684 199.07 58.561C198.464 58.8537 197.722 59 196.844 59C195.963 59 195.159 58.8862 194.432 58.6586C193.702 58.431 193.111 58.0718 192.659 57.5811C191.825 56.6174 191.408 55.0374 191.408 52.841C191.408 50.0032 192.24 47.724 193.905 46.0036C195.572 44.2625 197.73 43.3919 200.378 43.3919ZM200.179 45.0946C199.478 45.0946 198.939 45.473 198.56 46.2297C198.182 46.9865 197.799 48.3019 197.412 50.1761C197.025 52.0473 196.831 53.8254 196.831 55.5103C196.831 56.6632 197.171 57.2397 197.851 57.2397C198.457 57.2397 198.973 56.9367 199.398 56.3307C199.824 55.7276 200.121 54.9236 200.29 53.9185L201.824 45.6045C201.428 45.2646 200.879 45.0946 200.179 45.0946ZM220.669 49.2937L226.398 48.7838C225.038 51.7724 224.358 54.9975 224.358 58.459C223.847 58.8197 223.217 59 222.469 59C221.721 59 221.111 58.8256 220.638 58.4768C220.165 58.125 219.881 57.7703 219.787 57.4126C219.314 57.9033 218.694 58.2905 217.929 58.5743C217.163 58.8581 216.374 59 215.561 59C214.745 59 213.982 58.867 213.273 58.6009C212.563 58.3378 211.935 57.9122 211.388 57.3239C210.176 56.038 209.57 54.1757 209.57 51.7369C209.57 47.9531 210.583 44.9261 212.608 42.6558C214.689 40.3087 217.574 39.1351 221.263 39.1351C223.817 39.1351 225.548 39.7973 226.455 41.1216C226.739 41.5384 226.881 41.9966 226.881 42.4962C226.881 42.9987 226.773 43.4628 226.557 43.8885C226.339 44.3142 226.059 44.697 225.719 45.037C224.906 45.7937 223.997 46.1721 222.992 46.1721C222.596 46.1721 222.209 46.1056 221.831 45.9726C221.908 45.405 221.946 44.7901 221.946 44.128C221.946 43.4658 221.922 42.984 221.875 42.6824C221.828 42.3809 221.746 42.106 221.631 41.8577C221.386 41.3492 220.994 41.095 220.456 41.095C219.915 41.095 219.348 41.3832 218.753 41.9597C218.156 42.5361 217.621 43.2973 217.148 44.2432C216.108 46.3628 215.587 48.6995 215.587 51.2536C215.587 52.4272 215.815 53.4293 216.27 54.2599C216.761 55.1674 217.441 55.6212 218.31 55.6212C218.614 55.6212 218.904 55.5458 219.179 55.3951C219.451 55.2443 219.645 55.1128 219.76 55.0004L220.669 49.2937ZM229.023 57.5811C228.579 57.0904 228.259 56.4563 228.061 55.6788C227.863 54.9044 227.764 53.883 227.764 52.6149C227.764 51.3467 227.981 50.1362 228.415 48.9833C228.85 47.8275 229.465 46.8342 230.26 46.0036C231.886 44.2625 234.042 43.3919 236.729 43.3919C237.693 43.3919 238.525 43.553 239.226 43.8752L244.081 43.3919L241.979 54.4595C241.923 54.6871 241.895 55.0093 241.895 55.4261C241.895 55.84 242.022 56.1799 242.276 56.4459C242.534 56.712 242.851 56.8628 243.23 56.8982C243.041 57.5427 242.6 58.0541 241.908 58.4324C241.217 58.8108 240.484 59 239.709 59C238.935 59 238.287 58.8537 237.767 58.561C237.247 58.2684 236.91 57.8752 236.756 57.3815C236.454 57.8545 235.981 58.2432 235.337 58.5477C234.696 58.8492 233.945 59 233.084 59C232.221 59 231.441 58.8862 230.743 58.6586C230.043 58.431 229.469 58.0718 229.023 57.5811ZM235.013 46.0612C234.795 46.4012 234.591 46.8594 234.401 47.4358C234.212 48.0122 233.962 49.072 233.652 50.6151C233.339 52.1552 233.182 53.4751 233.182 54.5747C233.182 55.6715 233.268 56.3809 233.439 56.7031C233.608 57.0224 233.844 57.182 234.149 57.182C234.752 57.182 235.276 56.8938 235.723 56.3174C236.166 55.7409 236.474 54.9413 236.645 53.9185L238.148 45.6045C237.752 45.2646 237.322 45.0946 236.858 45.0946C236.394 45.0946 236.024 45.17 235.749 45.3207C235.474 45.4715 235.229 45.7183 235.013 46.0612ZM257.104 49.2937L262.837 48.7838C261.475 51.7724 260.793 54.9975 260.793 58.459C260.282 58.8197 259.654 59 258.909 59C258.161 59 257.55 58.8256 257.078 58.4768C256.605 58.125 256.321 57.7703 256.226 57.4126C255.753 57.9033 255.134 58.2905 254.368 58.5743C253.6 58.8581 252.809 59 251.996 59C251.183 59 250.422 58.867 249.712 58.6009C249.003 58.3378 248.373 57.9122 247.823 57.3239C246.614 56.038 246.01 54.1757 246.01 51.7369C246.01 47.9531 247.022 44.9261 249.047 42.6558C251.128 40.3087 254.014 39.1351 257.703 39.1351C260.257 39.1351 261.988 39.7973 262.895 41.1216C263.179 41.5384 263.321 41.9966 263.321 42.4962C263.321 42.9987 263.211 43.4628 262.993 43.8885C262.777 44.3142 262.497 44.697 262.155 45.037C261.342 45.7937 260.434 46.1721 259.432 46.1721C259.036 46.1721 258.649 46.1056 258.27 45.9726C258.344 45.405 258.381 44.7901 258.381 44.128C258.381 43.4658 258.357 42.984 258.31 42.6824C258.263 42.3809 258.183 42.106 258.071 41.8577C257.825 41.3492 257.432 41.095 256.891 41.095C256.353 41.095 255.786 41.3832 255.189 41.9597C254.594 42.5361 254.061 43.2973 253.588 44.2432C252.547 46.3628 252.027 48.6995 252.027 51.2536C252.027 52.4272 252.253 53.4293 252.705 54.2599C253.199 55.1674 253.88 55.6212 254.75 55.6212C255.051 55.6212 255.339 55.5458 255.614 55.3951C255.889 55.2443 256.083 55.1128 256.195 55.0004L257.104 49.2937ZM265.462 57.5811C265.019 57.0904 264.697 56.4563 264.496 55.6788C264.298 54.9044 264.199 53.883 264.199 52.6149C264.199 51.3467 264.416 50.1362 264.851 48.9833C265.288 47.8275 265.903 46.8342 266.695 46.0036C268.324 44.2625 270.482 43.3919 273.169 43.3919C274.133 43.3919 274.965 43.553 275.665 43.8752L280.516 43.3919L278.419 54.4595C278.36 54.6871 278.33 55.0093 278.33 55.4261C278.33 55.84 278.459 56.1799 278.716 56.4459C278.97 56.712 279.287 56.8628 279.665 56.8982C279.476 57.5427 279.037 58.0541 278.348 58.4324C277.656 58.8108 276.923 59 276.149 59C275.371 59 274.722 58.8537 274.202 58.561C273.682 58.2684 273.346 57.8752 273.196 57.3815C272.894 57.8545 272.421 58.2432 271.777 58.5477C271.132 58.8492 270.38 59 269.52 59C268.659 59 267.879 58.8862 267.178 58.6586C266.478 58.431 265.906 58.0718 265.462 57.5811ZM271.448 46.0612C271.233 46.4012 271.03 46.8594 270.841 47.4358C270.652 48.0122 270.401 49.072 270.087 50.6151C269.777 52.1552 269.622 53.4751 269.622 54.5747C269.622 55.6715 269.706 56.3809 269.874 56.7031C270.046 57.0224 270.282 57.182 270.584 57.182C271.19 57.182 271.715 56.8938 272.158 56.3174C272.604 55.7409 272.912 54.9413 273.08 53.9185L274.588 45.6045C274.189 45.2646 273.757 45.0946 273.293 45.0946C272.832 45.0946 272.464 45.17 272.189 45.3207C271.914 45.4715 271.667 45.7183 271.448 46.0612Z" fill="#3C3C3C"/>
<rect opacity="0.4" width="400" height="400" fill="#7F3698"/>
<path d="M40.3154 200.014C40.3154 203.723 39.6598 206.976 38.3486 209.771C37.0374 212.565 35.1569 214.722 32.707 216.24C30.2744 217.758 27.4795 218.518 24.3223 218.518C21.1995 218.518 18.4132 217.767 15.9634 216.266C13.5135 214.765 11.6157 212.626 10.27 209.848C8.92432 207.053 8.24284 203.844 8.22559 200.221V198.358C8.22559 194.649 8.88981 191.388 10.2183 188.576C11.564 185.746 13.4531 183.581 15.8857 182.08C18.3356 180.562 21.1305 179.803 24.2705 179.803C27.4105 179.803 30.1968 180.562 32.6294 182.08C35.0793 183.581 36.9684 185.746 38.2969 188.576C39.6426 191.388 40.3154 194.64 40.3154 198.332V200.014ZM32.4482 198.306C32.4482 194.355 31.7409 191.353 30.3262 189.3C28.9115 187.247 26.8929 186.221 24.2705 186.221C21.6654 186.221 19.6554 187.239 18.2407 189.274C16.826 191.293 16.11 194.26 16.0928 198.177V200.014C16.0928 203.861 16.8001 206.846 18.2148 208.968C19.6296 211.09 21.6654 212.151 24.3223 212.151C26.9274 212.151 28.9287 211.133 30.3262 209.098C31.7236 207.045 32.431 204.06 32.4482 200.144V198.306ZM68.627 202.602H53.7207V218H45.957V180.32H70.4902V186.609H53.7207V196.339H68.627V202.602ZM97.6631 202.602H82.7568V218H74.9932V180.32H99.5264V186.609H82.7568V196.339H97.6631V202.602ZM112.285 218H104.521V180.32H112.285V218ZM149.084 205.449C148.791 209.503 147.29 212.695 144.582 215.024C141.89 217.353 138.336 218.518 133.919 218.518C129.089 218.518 125.285 216.896 122.507 213.652C119.746 210.392 118.366 205.923 118.366 200.247V197.944C118.366 194.321 119.005 191.129 120.281 188.369C121.558 185.608 123.378 183.495 125.742 182.028C128.123 180.545 130.883 179.803 134.023 179.803C138.371 179.803 141.873 180.967 144.53 183.296C147.187 185.625 148.722 188.895 149.136 193.104H141.373C141.183 190.672 140.501 188.912 139.328 187.825C138.172 186.721 136.404 186.169 134.023 186.169C131.435 186.169 129.494 187.101 128.2 188.964C126.924 190.81 126.268 193.682 126.233 197.582V200.428C126.233 204.5 126.846 207.476 128.071 209.356C129.313 211.237 131.263 212.177 133.919 212.177C136.318 212.177 138.103 211.634 139.276 210.547C140.467 209.443 141.148 207.743 141.321 205.449H149.084ZM176.853 201.67H161.946V211.763H179.44V218H154.183V180.32H179.389V186.609H161.946V195.589H176.853V201.67ZM204.957 211.763H221.442V218H197.193V180.32H204.957V211.763ZM255.214 200.014C255.214 203.723 254.558 206.976 253.247 209.771C251.936 212.565 250.055 214.722 247.605 216.24C245.173 217.758 242.378 218.518 239.221 218.518C236.098 218.518 233.312 217.767 230.862 216.266C228.412 214.765 226.514 212.626 225.168 209.848C223.823 207.053 223.141 203.844 223.124 200.221V198.358C223.124 194.649 223.788 191.388 225.117 188.576C226.462 185.746 228.352 183.581 230.784 182.08C233.234 180.562 236.029 179.803 239.169 179.803C242.309 179.803 245.095 180.562 247.528 182.08C249.978 183.581 251.867 185.746 253.195 188.576C254.541 191.388 255.214 194.64 255.214 198.332V200.014ZM247.347 198.306C247.347 194.355 246.639 191.353 245.225 189.3C243.81 187.247 241.791 186.221 239.169 186.221C236.564 186.221 234.554 187.239 233.139 189.274C231.724 191.293 231.008 194.26 230.991 198.177V200.014C230.991 203.861 231.699 206.846 233.113 208.968C234.528 211.09 236.564 212.151 239.221 212.151C241.826 212.151 243.827 211.133 245.225 209.098C246.622 207.045 247.329 204.06 247.347 200.144V198.306ZM289.374 180.32V205.138C289.374 209.262 288.08 212.522 285.492 214.92C282.922 217.319 279.402 218.518 274.934 218.518C270.534 218.518 267.041 217.353 264.453 215.024C261.865 212.695 260.545 209.494 260.493 205.423V180.32H268.257V205.19C268.257 207.657 268.843 209.46 270.017 210.599C271.207 211.72 272.846 212.281 274.934 212.281C279.299 212.281 281.515 209.986 281.584 205.397V180.32H289.374ZM326.381 218H318.617L303.504 193.208V218H295.74V180.32H303.504L318.643 205.164V180.32H326.381V218ZM362.974 213.238C361.576 214.912 359.601 216.214 357.047 217.146C354.494 218.06 351.665 218.518 348.559 218.518C345.298 218.518 342.434 217.81 339.967 216.396C337.517 214.964 335.62 212.893 334.274 210.185C332.945 207.476 332.264 204.293 332.229 200.635V198.073C332.229 194.312 332.859 191.06 334.119 188.317C335.395 185.556 337.224 183.452 339.605 182.002C342.003 180.536 344.807 179.803 348.016 179.803C352.484 179.803 355.978 180.872 358.497 183.012C361.015 185.134 362.508 188.231 362.974 192.302H355.417C355.072 190.146 354.304 188.567 353.114 187.566C351.941 186.566 350.319 186.065 348.249 186.065C345.609 186.065 343.599 187.057 342.219 189.042C340.839 191.026 340.14 193.976 340.123 197.892V200.299C340.123 204.25 340.873 207.234 342.374 209.253C343.875 211.271 346.075 212.281 348.973 212.281C351.889 212.281 353.968 211.66 355.21 210.417V203.922H348.145V198.203H362.974V213.238ZM391.958 201.67H377.052V211.763H394.546V218H369.288V180.32H394.494V186.609H377.052V195.589H391.958V201.67Z" fill="#4A4A4A"/>
</svg>
