<svg width="400" height="400" viewBox="0 0 400 400" fill="none" xmlns="http://www.w3.org/2000/svg">
<rect opacity="0.4" width="400" height="400" fill="#C09F6C"/>
<path d="M139.473 58.5572C139.964 58.9179 140.209 59.481 140.209 60.2466C140.209 61.0122 140.043 61.6655 139.712 62.2065C139.381 62.7445 138.894 63.2219 138.249 63.6387C136.869 64.5285 134.972 64.9734 132.56 64.9734C130.148 64.9734 128.284 64.3438 126.969 63.0845C125.656 61.8252 125 60.0796 125 57.8478C125 54.6877 125.822 51.9075 127.465 49.5072C128.716 47.7276 130.457 46.4595 132.689 45.7027C133.842 45.3243 134.986 45.1351 136.121 45.1351C137.256 45.1351 138.174 45.2105 138.874 45.3613C139.575 45.512 140.19 45.7397 140.719 46.0441C141.875 46.7063 142.453 47.5665 142.453 48.6248C142.453 49.5914 141.997 50.4339 141.087 51.1522C140.256 51.7937 139.5 52.1144 138.817 52.1144C138.137 52.1144 137.655 52.0671 137.371 51.9726C137.448 51.2927 137.486 50.731 137.486 50.2876C137.486 49.8412 137.476 49.4569 137.455 49.1347C137.438 48.8155 137.382 48.5036 137.287 48.1991C137.098 47.4985 136.715 47.1482 136.139 47.1482C135.559 47.1482 134.981 47.4187 134.405 47.9597C133.828 48.4977 133.295 49.2204 132.804 50.128C131.687 52.1913 131.128 54.4438 131.128 56.8856C131.128 58.0562 131.459 58.9785 132.121 59.6525C132.783 60.3235 133.824 60.659 135.243 60.659C136.301 60.659 137.333 60.3087 138.338 59.6081C138.772 59.3066 139.151 58.9563 139.473 58.5572ZM149.348 62.8716C148.76 64.2905 147.53 65 145.659 65C144.713 65 143.937 64.6689 143.331 64.0068C142.84 63.4569 142.595 62.8701 142.595 62.2464C142.595 60.8275 142.926 58.5676 143.588 55.4666L145.659 44.5676L151.418 44L148.665 58.3577C148.343 59.7589 148.182 60.7048 148.182 61.1955C148.182 62.2745 148.57 62.8332 149.348 62.8716ZM157.946 65C153.783 65 151.702 63.0416 151.702 59.1248C151.702 56.3431 152.468 54.0536 153.999 52.2563C155.628 50.3467 157.851 49.3919 160.668 49.3919C162.714 49.3919 164.257 49.8649 165.297 50.8108C166.338 51.7568 166.858 53.223 166.858 55.2095C166.858 58.2365 166.044 60.6294 164.415 62.3883C162.827 64.1294 160.671 65 157.946 65ZM158.682 52.6554C158.457 53.1668 158.254 53.8053 158.074 54.5709C157.894 55.3366 157.69 56.3254 157.462 57.5374C157.235 58.7464 157.121 60.0988 157.121 61.5946C157.121 62.0853 157.202 62.4918 157.365 62.814C157.524 63.1362 157.821 63.2973 158.256 63.2973C158.693 63.2973 159.048 63.1938 159.32 62.9869C159.595 62.777 159.837 62.4267 160.047 61.936C160.426 61.064 160.766 59.8195 161.067 58.2025C161.369 56.5855 161.534 55.4267 161.564 54.7261C161.593 54.0255 161.608 53.4151 161.608 52.8948C161.608 52.3746 161.531 51.9445 161.378 51.6045C161.227 51.2646 160.939 51.0946 160.513 51.0946C160.087 51.0946 159.732 51.2276 159.449 51.4937C159.165 51.7568 158.909 52.144 158.682 52.6554ZM177.642 63.2397C176.731 64.4132 175.151 65 172.902 65C171.728 65 170.716 64.6453 169.864 63.9358C169.013 63.2264 168.587 62.3602 168.587 61.3374C168.587 60.7698 168.615 60.3442 168.672 60.0604L170.574 49.9595L176.334 49.3919L174.263 60.3442C174.186 60.761 174.148 61.0921 174.148 61.3374C174.148 62.4371 174.479 62.9869 175.141 62.9869C175.88 62.9869 176.514 62.4844 177.043 61.4793C177.215 61.1601 177.337 60.792 177.411 60.3752L179.429 49.9595L185.02 49.3919L182.918 60.4595C182.862 60.7432 182.834 61.0359 182.834 61.3374C182.834 61.6419 182.918 61.9597 183.087 62.2908C183.258 62.6218 183.619 62.8243 184.169 62.8982C184.054 63.3535 183.798 63.7318 183.402 64.0334C182.568 64.6778 181.702 65 180.803 65C179.905 65 179.191 64.8389 178.662 64.5167C178.133 64.1945 177.793 63.7688 177.642 63.2397ZM195.378 49.3919C196.058 49.3919 196.663 49.4673 197.192 49.618C197.213 49.5441 197.241 49.4022 197.276 49.1924L197.418 48.3144C197.495 47.936 197.59 47.435 197.702 46.8112L198.159 44.5676L203.803 44L200.655 60.4595C200.637 60.5718 200.628 60.7226 200.628 60.9117V61.3685C200.628 61.7853 200.732 62.1489 200.939 62.4592C201.146 62.7726 201.421 62.9293 201.764 62.9293C201.385 63.819 200.618 64.4531 199.462 64.8315C199.066 64.9438 198.589 65 198.03 65C197.471 65 196.936 64.8537 196.425 64.561C195.916 64.2684 195.585 63.8752 195.432 63.3815C195.13 63.8752 194.676 64.2684 194.07 64.561C193.464 64.8537 192.722 65 191.844 65C190.963 65 190.159 64.8862 189.432 64.6586C188.702 64.431 188.111 64.0718 187.659 63.5811C186.825 62.6174 186.408 61.0374 186.408 58.841C186.408 56.0032 187.24 53.724 188.905 52.0036C190.572 50.2625 192.73 49.3919 195.378 49.3919ZM195.179 51.0946C194.478 51.0946 193.939 51.473 193.56 52.2297C193.182 52.9865 192.799 54.3019 192.412 56.1761C192.025 58.0473 191.831 59.8254 191.831 61.5103C191.831 62.6632 192.171 63.2397 192.851 63.2397C193.457 63.2397 193.973 62.9367 194.398 62.3307C194.824 61.7276 195.121 60.9236 195.29 59.9185L196.824 51.6045C196.428 51.2646 195.879 51.0946 195.179 51.0946ZM215.669 55.2937L221.398 54.7838C220.038 57.7724 219.358 60.9975 219.358 64.459C218.847 64.8197 218.217 65 217.469 65C216.721 65 216.111 64.8256 215.638 64.4768C215.165 64.125 214.881 63.7703 214.787 63.4126C214.314 63.9033 213.694 64.2905 212.929 64.5743C212.163 64.8581 211.374 65 210.561 65C209.745 65 208.982 64.867 208.273 64.6009C207.563 64.3378 206.935 63.9122 206.388 63.3239C205.176 62.038 204.57 60.1757 204.57 57.7369C204.57 53.9531 205.583 50.9261 207.608 48.6558C209.689 46.3087 212.574 45.1351 216.263 45.1351C218.817 45.1351 220.548 45.7973 221.455 47.1216C221.739 47.5384 221.881 47.9966 221.881 48.4962C221.881 48.9987 221.773 49.4628 221.557 49.8885C221.339 50.3142 221.059 50.697 220.719 51.037C219.906 51.7937 218.997 52.1721 217.992 52.1721C217.596 52.1721 217.209 52.1056 216.831 51.9726C216.908 51.405 216.946 50.7901 216.946 50.128C216.946 49.4658 216.922 48.984 216.875 48.6824C216.828 48.3809 216.746 48.106 216.631 47.8577C216.386 47.3492 215.994 47.095 215.456 47.095C214.915 47.095 214.348 47.3832 213.753 47.9597C213.156 48.5361 212.621 49.2973 212.148 50.2432C211.108 52.3628 210.587 54.6995 210.587 57.2536C210.587 58.4272 210.815 59.4293 211.27 60.2599C211.761 61.1674 212.441 61.6212 213.31 61.6212C213.614 61.6212 213.904 61.5458 214.179 61.3951C214.451 61.2443 214.645 61.1128 214.76 61.0004L215.669 55.2937ZM224.023 63.5811C223.579 63.0904 223.259 62.4563 223.061 61.6788C222.863 60.9044 222.764 59.883 222.764 58.6149C222.764 57.3467 222.981 56.1362 223.415 54.9833C223.85 53.8275 224.465 52.8342 225.26 52.0036C226.886 50.2625 229.042 49.3919 231.729 49.3919C232.693 49.3919 233.525 49.553 234.226 49.8752L239.081 49.3919L236.979 60.4595C236.923 60.6871 236.895 61.0093 236.895 61.4261C236.895 61.84 237.022 62.1799 237.276 62.4459C237.534 62.712 237.851 62.8628 238.23 62.8982C238.041 63.5427 237.6 64.0541 236.908 64.4324C236.217 64.8108 235.484 65 234.709 65C233.935 65 233.287 64.8537 232.767 64.561C232.247 64.2684 231.91 63.8752 231.756 63.3815C231.454 63.8545 230.981 64.2432 230.337 64.5477C229.696 64.8492 228.945 65 228.084 65C227.221 65 226.441 64.8862 225.743 64.6586C225.043 64.431 224.469 64.0718 224.023 63.5811ZM230.013 52.0612C229.795 52.4012 229.591 52.8594 229.401 53.4358C229.212 54.0122 228.962 55.072 228.652 56.6151C228.339 58.1552 228.182 59.4751 228.182 60.5747C228.182 61.6715 228.268 62.3809 228.439 62.7031C228.608 63.0224 228.844 63.182 229.149 63.182C229.752 63.182 230.276 62.8938 230.723 62.3174C231.166 61.7409 231.474 60.9413 231.645 59.9185L233.148 51.6045C232.752 51.2646 232.322 51.0946 231.858 51.0946C231.394 51.0946 231.024 51.17 230.749 51.3207C230.474 51.4715 230.229 51.7183 230.013 52.0612ZM252.104 55.2937L257.837 54.7838C256.475 57.7724 255.793 60.9975 255.793 64.459C255.282 64.8197 254.654 65 253.909 65C253.161 65 252.55 64.8256 252.078 64.4768C251.605 64.125 251.321 63.7703 251.226 63.4126C250.753 63.9033 250.134 64.2905 249.368 64.5743C248.6 64.8581 247.809 65 246.996 65C246.183 65 245.422 64.867 244.712 64.6009C244.003 64.3378 243.373 63.9122 242.823 63.3239C241.614 62.038 241.01 60.1757 241.01 57.7369C241.01 53.9531 242.022 50.9261 244.047 48.6558C246.128 46.3087 249.014 45.1351 252.703 45.1351C255.257 45.1351 256.988 45.7973 257.895 47.1216C258.179 47.5384 258.321 47.9966 258.321 48.4962C258.321 48.9987 258.211 49.4628 257.993 49.8885C257.777 50.3142 257.497 50.697 257.155 51.037C256.342 51.7937 255.434 52.1721 254.432 52.1721C254.036 52.1721 253.649 52.1056 253.27 51.9726C253.344 51.405 253.381 50.7901 253.381 50.128C253.381 49.4658 253.357 48.984 253.31 48.6824C253.263 48.3809 253.183 48.106 253.071 47.8577C252.825 47.3492 252.432 47.095 251.891 47.095C251.353 47.095 250.786 47.3832 250.189 47.9597C249.594 48.5361 249.061 49.2973 248.588 50.2432C247.547 52.3628 247.027 54.6995 247.027 57.2536C247.027 58.4272 247.253 59.4293 247.705 60.2599C248.199 61.1674 248.88 61.6212 249.75 61.6212C250.051 61.6212 250.339 61.5458 250.614 61.3951C250.889 61.2443 251.083 61.1128 251.195 61.0004L252.104 55.2937ZM260.462 63.5811C260.019 63.0904 259.697 62.4563 259.496 61.6788C259.298 60.9044 259.199 59.883 259.199 58.6149C259.199 57.3467 259.416 56.1362 259.851 54.9833C260.288 53.8275 260.903 52.8342 261.695 52.0036C263.324 50.2625 265.482 49.3919 268.169 49.3919C269.133 49.3919 269.965 49.553 270.665 49.8752L275.516 49.3919L273.419 60.4595C273.36 60.6871 273.33 61.0093 273.33 61.4261C273.33 61.84 273.459 62.1799 273.716 62.4459C273.97 62.712 274.287 62.8628 274.665 62.8982C274.476 63.5427 274.037 64.0541 273.348 64.4324C272.656 64.8108 271.923 65 271.149 65C270.371 65 269.722 64.8537 269.202 64.561C268.682 64.2684 268.346 63.8752 268.196 63.3815C267.894 63.8545 267.421 64.2432 266.777 64.5477C266.132 64.8492 265.38 65 264.52 65C263.659 65 262.879 64.8862 262.178 64.6586C261.478 64.431 260.906 64.0718 260.462 63.5811ZM266.448 52.0612C266.233 52.4012 266.03 52.8594 265.841 53.4358C265.652 54.0122 265.401 55.072 265.087 56.6151C264.777 58.1552 264.622 59.4751 264.622 60.5747C264.622 61.6715 264.706 62.3809 264.874 62.7031C265.046 63.0224 265.282 63.182 265.584 63.182C266.19 63.182 266.715 62.8938 267.158 62.3174C267.604 61.7409 267.912 60.9413 268.08 59.9185L269.588 51.6045C269.189 51.2646 268.757 51.0946 268.293 51.0946C267.832 51.0946 267.464 51.17 267.189 51.3207C266.914 51.4715 266.667 51.7183 266.448 52.0612Z" fill="#3C3C3C"/>
<path d="M38.9028 208.114C38.9028 206.648 38.3853 205.526 37.3501 204.75C36.3149 203.956 34.4517 203.128 31.7603 202.266C29.0688 201.386 26.9382 200.523 25.3682 199.678C21.0895 197.366 18.9502 194.252 18.9502 190.335C18.9502 188.3 19.5195 186.488 20.6582 184.901C21.8141 183.296 23.4618 182.046 25.6011 181.148C27.7576 180.251 30.173 179.803 32.8472 179.803C35.5386 179.803 37.9367 180.294 40.0415 181.278C42.1463 182.244 43.7767 183.616 44.9326 185.393C46.1058 187.17 46.6924 189.188 46.6924 191.448H38.9287C38.9287 189.723 38.3853 188.386 37.2983 187.437C36.2114 186.471 34.6846 185.988 32.7178 185.988C30.82 185.988 29.3449 186.393 28.2925 187.204C27.2401 187.998 26.7139 189.05 26.7139 190.361C26.7139 191.586 27.3263 192.613 28.5513 193.441C29.7935 194.269 31.6136 195.045 34.0117 195.77C38.4284 197.098 41.646 198.746 43.6646 200.713C45.6831 202.68 46.6924 205.13 46.6924 208.062C46.6924 211.323 45.4588 213.885 42.9917 215.749C40.5246 217.595 37.2035 218.518 33.0283 218.518C30.1299 218.518 27.4902 217.991 25.1094 216.939C22.7285 215.869 20.9084 214.411 19.6489 212.565C18.4067 210.719 17.7856 208.58 17.7856 206.147H25.5752C25.5752 210.305 28.0596 212.384 33.0283 212.384C34.8743 212.384 36.3149 212.013 37.3501 211.271C38.3853 210.512 38.9028 209.46 38.9028 208.114ZM62.1162 180.32L71.7949 207.648L81.4219 180.32H91.6182V218H83.8286V207.7L84.605 189.921L74.4346 218H69.1035L58.959 189.947L59.7354 207.7V218H51.9717V180.32H62.1162ZM129.35 200.014C129.35 203.723 128.694 206.976 127.383 209.771C126.072 212.565 124.191 214.722 121.741 216.24C119.309 217.758 116.514 218.518 113.356 218.518C110.234 218.518 107.447 217.767 104.998 216.266C102.548 214.765 100.65 212.626 99.3042 209.848C97.9585 207.053 97.277 203.844 97.2598 200.221V198.358C97.2598 194.649 97.924 191.388 99.2524 188.576C100.598 185.746 102.487 183.581 104.92 182.08C107.37 180.562 110.165 179.803 113.305 179.803C116.445 179.803 119.231 180.562 121.664 182.08C124.113 183.581 126.003 185.746 127.331 188.576C128.677 191.388 129.35 194.64 129.35 198.332V200.014ZM121.482 198.306C121.482 194.355 120.775 191.353 119.36 189.3C117.946 187.247 115.927 186.221 113.305 186.221C110.7 186.221 108.69 187.239 107.275 189.274C105.86 191.293 105.144 194.26 105.127 198.177V200.014C105.127 203.861 105.834 206.846 107.249 208.968C108.664 211.09 110.7 212.151 113.356 212.151C115.962 212.151 117.963 211.133 119.36 209.098C120.758 207.045 121.465 204.06 121.482 200.144V198.306ZM165.942 200.014C165.942 203.723 165.287 206.976 163.976 209.771C162.664 212.565 160.784 214.722 158.334 216.24C155.901 217.758 153.106 218.518 149.949 218.518C146.826 218.518 144.04 217.767 141.59 216.266C139.14 214.765 137.243 212.626 135.897 209.848C134.551 207.053 133.87 203.844 133.853 200.221V198.358C133.853 194.649 134.517 191.388 135.845 188.576C137.191 185.746 139.08 183.581 141.513 182.08C143.963 180.562 146.757 179.803 149.897 179.803C153.037 179.803 155.824 180.562 158.256 182.08C160.706 183.581 162.595 185.746 163.924 188.576C165.27 191.388 165.942 194.64 165.942 198.332V200.014ZM158.075 198.306C158.075 194.355 157.368 191.353 155.953 189.3C154.538 187.247 152.52 186.221 149.897 186.221C147.292 186.221 145.282 187.239 143.868 189.274C142.453 191.293 141.737 194.26 141.72 198.177V200.014C141.72 203.861 142.427 206.846 143.842 208.968C145.257 211.09 147.292 212.151 149.949 212.151C152.554 212.151 154.556 211.133 155.953 209.098C157.351 207.045 158.058 204.06 158.075 200.144V198.306ZM197.722 186.609H186.18V218H178.416V186.609H167.029V180.32H197.722V186.609ZM232.839 218H225.076V201.852H209.937V218H202.173V180.32H209.937V195.589H225.076V180.32H232.839V218ZM268.035 180.32H275.798V206.406C275.798 208.804 275.264 210.926 274.194 212.772C273.141 214.601 271.649 216.016 269.717 217.017C267.785 218.017 265.602 218.518 263.169 218.518C259.184 218.518 256.079 217.508 253.853 215.49C251.627 213.454 250.515 210.581 250.515 206.872H258.33C258.33 208.718 258.718 210.081 259.495 210.961C260.271 211.841 261.496 212.281 263.169 212.281C264.653 212.281 265.835 211.772 266.715 210.754C267.595 209.736 268.035 208.287 268.035 206.406V180.32ZM303.152 210.236H289.54L286.952 218H278.697L292.723 180.32H299.917L314.021 218H305.766L303.152 210.236ZM291.636 203.948H301.056L296.32 189.844L291.636 203.948ZM325.771 211.763H344.766V218H316.066V213.445L334.699 186.609H316.092V180.32H344.352V184.771L325.771 211.763ZM357.912 211.763H376.907V218H348.208V213.445L366.84 186.609H348.233V180.32H376.493V184.771L357.912 211.763Z" fill="#4A4A4A"/>
</svg>
